# Blender v2.79 (sub 0) OBJ File: 'pica4.blend'
# www.blender.org
mtllib other_side.mtl
o Pica_Plane
v -5.678576 -0.090058 -8.049388
v -4.024694 0.000000 8.049388
v 0.000000 0.000000 8.049388
v -4.024698 3.163172 -8.049388
v -4.024698 3.163172 -8.441156
v -4.024698 -0.074038 -8.405669
v -4.024698 2.428458 -8.444201
v -4.024698 3.163172 -3.987182
v -4.240808 1.938745 -8.049388
v -5.670326 2.061898 -8.049388
v -5.666688 2.427600 -8.049388
v -4.024698 2.428458 -8.049387
v -4.024698 2.428609 -3.987181
v -5.352264 2.427978 -8.049388
v -4.024698 2.075238 -8.438698
v -5.221366 1.933789 -8.049388
v -5.221366 -0.089152 -8.049388
v -4.024698 2.075238 -8.049387
v -5.352264 2.064081 -8.049388
v -5.352265 -0.090058 -8.049388
v -5.666688 2.427600 6.578981
v -5.678576 0.000000 -3.932278
v -5.669911 2.067886 -3.932280
v -4.024698 4.216864 6.678702
v -4.551173 4.216864 6.678702
v -4.024698 2.429007 6.678702
v -6.341974 -0.089625 -8.049383
v -6.333724 2.062331 -8.049383
v -6.310221 2.068319 -3.932275
v -6.308737 0.000433 -3.932273
v -4.551173 3.163172 6.678702
v -5.669159 2.078729 6.584413
v -5.678576 0.000000 6.595010
v -4.551173 3.163172 -8.441156
v -4.551173 3.163172 -8.049388
v -4.551173 4.216864 17.040928
v -4.024698 -0.143105 17.040928
v -4.024698 3.163172 17.040928
v -4.024698 2.429057 17.040928
v -4.024698 2.429057 8.053613
v -5.352264 2.427978 8.049913
v -5.666688 2.427600 8.049913
v -4.551173 3.163172 8.022642
v -4.024698 3.163172 8.050431
v -5.221366 1.933789 -12.916974
v -5.349386 -0.081105 8.049913
v -5.663810 -0.081483 8.049913
v -4.024698 4.216864 -8.441156
v -4.024698 4.216864 -8.049388
v -4.551173 4.216864 -8.049388
v -4.551173 4.216864 -8.441156
v -4.551173 3.163172 17.040928
v -5.352264 2.427978 16.932106
v -4.551173 4.216864 8.022642
v -4.024698 4.216864 8.022642
v 2.760378 0.000000 8.049388
v -4.551173 3.163172 17.197477
v -4.024698 3.163172 17.197477
v -4.024698 2.972547 17.197477
v -4.551173 2.972119 17.197477
v -4.548295 -0.080454 17.197477
v -4.021820 -0.080026 17.197477
v -4.551173 4.216864 17.197477
v -4.024698 4.216864 17.197477
v 2.760378 0.000000 8.589161
v 0.000000 0.000000 8.589161
v -4.024694 0.000000 8.589161
v -3.041788 0.000000 8.049388
v -3.041788 0.000000 8.589161
v -3.041788 13.802813 8.049388
v 0.000000 13.802813 8.049388
v 2.760378 13.802813 8.049388
v 2.760378 13.802813 8.589161
v 0.000000 13.802813 8.589161
v -3.041788 13.802813 8.589161
v 0.000000 12.700907 8.049388
v 2.760378 12.700907 8.049388
v -3.041788 12.700907 8.049388
v 0.000000 12.700907 8.589161
v -3.041788 12.700907 8.589161
v 2.760378 12.700907 8.589161
v -3.041788 13.802813 16.950897
v 0.000000 13.802813 16.950897
v 2.760378 13.802813 16.950897
v 0.000000 12.700907 16.950897
v -3.041788 12.700907 16.950897
v 2.760378 12.700907 16.950897
v 2.760378 12.700907 15.583309
v 0.000000 12.700907 15.583309
v 0.000000 13.802813 15.583309
v 2.760378 13.802813 15.583309
v -3.041788 12.700907 15.583309
v -3.041788 13.802813 15.583309
v 2.760378 -2.081487 15.583309
v 2.760378 -2.081487 16.950897
v 0.000000 -2.081487 16.950897
v -3.041788 -2.081487 16.950897
v -3.041788 -2.081487 15.583309
v 0.000000 -2.081487 15.583309
v -4.980443 13.802813 8.049388
v -4.980443 13.802813 8.589161
v -4.980443 12.700907 8.049388
v -4.980443 12.700907 8.589161
v -4.980443 13.802813 16.950897
v -4.980443 12.700907 16.950897
v -4.980443 12.700907 15.583309
v -4.980443 13.802813 15.583309
v -4.980443 -2.081487 15.583309
v -4.980443 -2.081487 16.950897
v -4.024694 0.491893 8.049388
v -4.024694 0.491893 8.589161
v -3.041788 0.491893 8.049388
v -3.041788 0.491893 8.589161
v -21.321087 -0.081483 8.049913
v -21.323967 2.427600 8.049913
v -21.335854 0.000000 6.595010
v -4.024698 3.163172 6.678702
v -5.352264 2.427978 6.578981
v -21.326437 2.078729 6.584413
v -21.323967 2.427600 6.578981
v -4.240808 -0.074038 -8.049387
v -4.024698 -0.074038 -8.049387
v -4.240808 1.938745 -16.515841
v -5.221366 1.933789 -16.515841
v -4.240808 -0.074038 -16.515839
v -4.240808 1.938745 -12.916974
v -4.240808 -0.074038 -12.916973
v -5.221366 -0.089152 -8.331817
v -5.221366 1.933789 -8.331817
v -4.240808 1.938745 -8.331817
v -4.240808 -0.074038 -8.331816
v -4.024698 2.075238 -17.838150
v -4.024698 2.428458 -17.838150
v -4.024698 -0.074038 -17.838150
v -4.024698 3.163172 -17.823389
v -4.551173 3.163172 -17.823484
v -4.024698 4.216864 -17.824003
v -4.551173 4.216864 -17.824003
v -5.352264 2.427978 -4.014686
v -5.666688 2.427600 -4.014686
v -4.551173 3.163172 -3.987182
v -4.551173 4.216864 -3.987182
v -4.024698 4.216864 -3.987182
v -4.024698 4.216864 17.040928
v -4.024698 -0.143105 8.053613
v -5.352264 -0.144185 8.049913
v -5.352264 -0.144185 16.932106
v -23.496357 3.163172 6.678702
v -23.496357 3.163172 -8.441156
v -23.496357 3.163172 -8.049388
v -23.496357 3.163172 8.022642
v -23.496357 3.163172 17.040928
v -23.496357 3.163172 -17.823484
v -23.496357 3.163172 -3.987182
v -5.351980 2.179830 8.049913
v -5.666403 2.077833 8.049913
v -21.323683 2.179452 8.049913
v -22.174465 2.075238 -17.838150
v -22.174465 2.428458 -17.838150
v -22.174465 -0.074038 -17.838150
v -22.174465 3.163172 -17.823389
v -22.174465 2.075238 6.227758
v -22.174465 2.428458 6.227758
v -22.174465 -0.074038 6.227758
v -22.174465 3.163172 6.242519
v -23.258516 2.062331 -18.568645
v -6.333724 2.062331 -18.568645
v -23.235012 2.068319 -3.932275
v -23.258516 2.062331 -8.049383
v -6.310221 2.068319 9.632304
v -23.235012 2.068319 9.632304
v -6.125031 1.933789 -12.916974
v -6.125031 1.933789 -16.515841
v -6.125031 1.933789 -8.331817
vt 0.559658 0.726672
vt 0.539947 0.938238
vt 0.539947 0.726672
vt 0.061423 0.189367
vt 0.071511 0.197209
vt 0.061423 0.197209
vt 0.000042 0.000043
vt 0.000042 0.190033
vt 0.000042 0.197209
vt 0.092494 0.521493
vt 0.122586 0.702580
vt 0.092494 0.702580
vt 0.896146 0.818396
vt 0.866054 0.791326
vt 0.896146 0.791326
vt 0.558818 0.327031
vt 0.567801 0.370524
vt 0.558821 0.370524
vt 0.659287 0.597003
vt 0.650308 0.604325
vt 0.650204 0.596959
vt 0.092494 0.189318
vt 0.092494 0.197209
vt 0.659287 0.604332
vt 0.697200 0.597227
vt 0.697200 0.604342
vt 0.659287 0.553614
vt 0.649968 0.553614
vt 0.663025 0.594378
vt 0.663025 0.553632
vt 0.796724 0.380718
vt 0.856090 0.592546
vt 0.796724 0.592760
vt 0.791126 0.595265
vt 0.773046 0.553614
vt 0.791332 0.553614
vt 0.622043 0.563066
vt 0.631022 0.349688
vt 0.631022 0.563066
vt 0.061423 0.000043
vt 0.071511 0.189257
vt 0.866054 0.576493
vt 0.896146 0.576493
vt 0.925551 0.423593
vt 0.940587 0.208760
vt 0.940587 0.423593
vt 0.871039 0.178950
vt 0.852752 0.261876
vt 0.852093 0.178949
vt 0.584129 0.562512
vt 0.622043 0.349688
vt 0.092494 0.493863
vt 0.122586 0.520933
vt 0.766354 0.916055
vt 0.737423 0.704523
vt 0.767721 0.704489
vt 0.925551 0.181690
vt 0.940587 0.000043
vt 0.940587 0.181690
vt 0.978501 0.170649
vt 0.940587 0.349481
vt 0.940587 0.170575
vt 0.631258 0.596967
vt 0.631022 0.553622
vt 0.735132 0.553635
vt 0.773046 0.605422
vt 0.735132 0.605444
vt 0.691029 0.594478
vt 0.071527 0.493863
vt 0.071528 0.521557
vt 0.631022 0.320060
vt 0.896146 0.370280
vt 0.924150 0.297791
vt 0.924150 0.370280
vt 0.458890 0.720224
vt 0.461967 0.859463
vt 0.458890 0.859485
vt 0.896146 0.462634
vt 0.924150 0.462634
vt 0.940587 0.513305
vt 0.925551 0.505414
vt 0.940587 0.505414
vt 0.071528 0.702580
vt 0.925551 0.208760
vt 0.122586 0.279030
vt 0.092494 0.279030
vt 0.122586 0.197209
vt 0.896146 0.494672
vt 0.866054 0.486781
vt 0.896146 0.486781
vt 0.871042 0.244282
vt 0.886074 0.240435
vt 0.886078 0.244275
vt 0.871062 0.178949
vt 0.886098 0.178950
vt 0.871062 0.265506
vt 0.440554 0.720308
vt 0.440554 0.859569
vt 0.866054 0.999860
vt 0.866054 0.818396
vt 0.940587 0.164886
vt 0.998070 0.072532
vt 0.998070 0.164886
vt 0.787094 0.615063
vt 0.773046 0.595265
vt 0.787094 0.595265
vt 0.177952 0.342180
vt 0.264822 0.319986
vt 0.264822 0.342180
vt 0.343656 0.319986
vt 0.343656 0.342180
vt 0.558818 0.531502
vt 0.543402 0.475902
vt 0.558818 0.475902
vt 0.558818 0.592770
vt 0.543402 0.531502
vt 0.628995 0.938013
vt 0.677575 0.919500
vt 0.677575 0.938013
vt 0.631022 0.297791
vt 0.615607 0.319986
vt 0.615607 0.297791
vt 0.686389 0.297791
vt 0.631022 0.000043
vt 0.686388 0.000043
vt 0.376804 0.297791
vt 0.415861 0.000043
vt 0.415861 0.297791
vt 0.631022 0.553614
vt 0.709855 0.297791
vt 0.709855 0.553614
vt 0.584129 0.319986
vt 0.568713 0.575808
vt 0.568713 0.319986
vt 0.631022 0.041968
vt 0.615607 0.041968
vt 0.796724 0.297791
vt 0.796724 0.553614
vt 0.264823 0.598003
vt 0.343656 0.598003
vt 0.177952 0.598003
vt 0.567737 0.904585
vt 0.514206 0.919500
vt 0.514206 0.904585
vt 0.616316 0.904585
vt 0.567737 0.919500
vt 0.575463 0.938013
vt 0.541345 0.919500
vt 0.575463 0.919500
vt 0.773259 0.000043
vt 0.415861 0.319985
vt 0.628995 0.919500
vt 0.543402 0.592770
vt 0.343656 0.531502
vt 0.543402 0.420302
vt 0.343656 0.359034
vt 0.543402 0.359034
vt 0.979644 0.468540
vt 0.940587 0.507589
vt 0.940587 0.468540
vt 0.543402 0.475902
vt 0.343656 0.420302
vt 0.343656 0.475902
vt 0.940587 0.351673
vt 0.979644 0.407272
vt 0.940587 0.407272
vt 0.616316 0.704485
vt 0.480088 0.904585
vt 0.567737 0.704485
vt 0.852093 0.000043
vt 0.773259 0.297791
vt 0.138001 0.297791
vt 0.122586 0.319986
vt 0.122586 0.297791
vt 0.337747 0.297791
vt 0.376804 0.319986
vt 0.337747 0.319986
vt 0.138001 0.319986
vt 0.376804 0.000043
vt 0.376804 0.297791
vt 0.343656 0.631818
vt 0.343656 0.592770
vt 0.480088 0.704485
vt 0.514206 0.704485
vt 0.177952 0.319986
vt 0.558818 0.319986
vt 0.558818 0.359034
vt 0.543402 0.319986
vt 0.543402 0.631818
vt 0.584129 0.595606
vt 0.568713 0.575808
vt 0.584129 0.575808
vt 0.122586 0.598003
vt 0.136634 0.608875
vt 0.122586 0.608875
vt 0.582761 0.606478
vt 0.568713 0.595606
vt 0.582761 0.595606
vt 0.866141 0.281675
vt 0.852093 0.261877
vt 0.866141 0.261877
vt 0.071515 0.279030
vt 0.940587 0.702295
vt 0.925551 0.513305
vt 0.697200 0.553936
vt 0.940587 0.072532
vt 0.998070 0.000043
vt 0.584129 0.347679
vt 0.622043 0.320060
vt 0.566883 0.411270
vt 0.558818 0.370524
vt 0.566883 0.370524
vt 0.940587 0.170575
vt 0.998070 0.170575
vt 0.896146 0.468323
vt 0.924150 0.468323
vt 0.092494 0.000340
vt 0.122586 0.189318
vt 0.896146 0.297801
vt 0.122586 0.493863
vt 0.584129 0.644333
vt 0.622043 0.644334
vt 0.866054 0.494672
vt 0.631022 0.644334
vt 0.855781 0.380718
vt 0.866054 0.592437
vt 0.866054 0.379058
vt 0.855610 0.297791
vt 0.866054 0.297791
vt 0.735132 0.553635
vt 0.697200 0.605422
vt 0.697200 0.553614
vt -0.001930 0.521557
vt 0.852093 0.000043
vt 0.925551 0.178949
vt 0.852093 0.178949
vt 0.326527 0.838538
vt 0.159416 0.743672
vt 0.326527 0.743672
vt 0.326527 0.878153
vt 0.159416 0.874669
vt 0.326527 0.874669
vt 0.326527 0.961603
vt 0.159416 0.878153
vt 0.159416 0.838538
vt 0.159416 0.731718
vt 0.326527 0.731718
vt 0.159416 0.651506
vt 0.326527 0.651506
vt 0.771041 0.916051
vt 0.771046 0.704485
vt 0.558821 0.319986
vt 0.567801 0.324984
vt 0.866054 0.622064
vt 0.694824 0.726854
vt 0.714462 0.938382
vt 0.694821 0.938421
vt 0.397001 0.771033
vt 0.400326 0.751157
vt 0.400326 0.771033
vt 0.071511 0.000043
vt 0.092494 0.000340
vt 0.150192 0.762450
vt 0.135706 0.854613
vt 0.135706 0.762450
vt 0.071511 0.000043
vt 0.071511 0.000043
vt 0.092494 0.000340
vt 0.135706 0.762450
vt 0.121220 0.884655
vt 0.121220 0.762450
vt 0.061423 0.000043
vt 0.007148 0.852236
vt 0.121062 0.831330
vt 0.121220 0.852236
vt 0.007148 0.905653
vt 0.006989 0.831330
vt 0.121062 0.762450
vt 0.896146 0.297791
vt 0.896146 0.297791
vt 0.896146 0.370280
vt 0.559658 0.938238
vt 0.773129 0.595265
vt 0.871039 0.261877
vt 0.737418 0.916089
vt 0.925551 0.000043
vt 0.978501 0.351673
vt 0.773046 0.553614
vt 0.461967 0.720203
vt 0.871039 0.240434
vt 0.886098 0.265499
vt 0.896146 0.999860
vt 0.773046 0.615063
vt 0.631022 0.319986
vt 0.631023 0.297791
vt 0.376804 0.000043
vt 0.631022 0.297791
vt 0.584129 0.575808
vt 0.616316 0.919500
vt 0.541345 0.938013
vt 0.376804 0.319986
vt 0.979644 0.507589
vt 0.343656 0.475902
vt 0.979644 0.351673
vt 0.480088 0.919500
vt 0.852093 0.297791
vt 0.337747 0.000043
vt 0.122586 0.342180
vt 0.343656 0.319986
vt 0.558818 0.631818
vt 0.568713 0.595606
vt 0.136634 0.598003
vt 0.568713 0.606478
vt 0.852093 0.281675
vt 0.925551 0.702295
vt 0.691029 0.553936
vt 0.940587 0.000043
vt 0.584129 0.319986
vt 0.558818 0.411270
vt 0.122586 0.000328
vt 0.866054 0.297791
vt 0.735132 0.605444
vt -0.001930 0.702580
vt 0.925551 0.000043
vt 0.159416 0.961603
vt 0.567801 0.319986
vt 0.856065 0.622064
vt 0.714462 0.726817
vt 0.395651 0.751230
vt 0.150193 0.854613
vt 0.135706 0.884655
vt 0.061423 0.000043
vt 0.121220 0.905653
vt 0.006989 0.762450
vt 0.896146 0.462634
vn 0.0000 -1.0000 0.0000
vn 1.0000 0.0000 0.0000
vn -1.0000 0.0000 0.0000
vn -0.0000 0.0000 -1.0000
vn 0.0000 0.0000 1.0000
vn 1.0000 -0.0045 0.0000
vn 0.0012 -1.0000 0.0000
vn 0.0000 1.0000 0.0000
vn -0.0007 -1.0000 0.0015
vn 0.0005 -1.0000 0.0000
vn 0.0008 -1.0000 0.0000
vn 0.0028 0.0000 -1.0000
vn 0.0051 -1.0000 0.0000
vn 0.0000 0.0156 0.9999
vn 0.0000 0.0051 1.0000
vn 0.0004 -1.0000 0.0000
vn 1.0000 -0.0071 -0.0001
vn 1.0000 -0.0099 0.0000
vn -0.0817 0.0000 0.9967
vn 1.0000 -0.0071 0.0000
vn 0.0000 -0.9976 0.0686
vn 1.0000 0.0011 0.0000
vn 0.0000 0.0201 -0.9998
vn 0.0000 -1.0000 0.0015
vn 1.0000 -0.0042 -0.0001
vn 1.0000 -0.0090 0.0000
vn 1.0000 -0.0090 -0.0001
vn 1.0000 0.0008 -0.0019
vn -0.0065 -1.0000 -0.0006
vn 1.0000 -0.0071 -0.0014
usemtl Material.003
s off
f 42/1/1 120/2/1 21/3/1
f 15/4/2 12/5/2 18/6/2
f 134/7/2 15/4/2 6/8/2
f 6/8/2 18/6/2 122/9/2
f 44/10/2 144/11/2 38/12/2
f 43/13/3 25/14/3 31/15/3
f 156/16/4 46/17/4 47/18/4
f 19/19/5 11/20/5 10/21/5
f 12/5/2 5/22/2 4/23/2
f 14/24/5 18/25/5 12/26/5
f 20/27/5 10/21/5 1/28/5
f 16/29/5 20/27/5 17/30/5
f 22/31/6 32/32/6 33/33/6
f 22/34/4 29/35/4 23/36/4
f 139/37/7 21/38/7 140/39/7
f 132/40/2 7/41/2 15/4/2
f 31/15/3 142/42/3 141/43/3
f 142/44/8 24/45/8 143/46/8
f 10/47/9 29/48/9 28/49/9
f 13/50/10 118/51/10 139/37/10
f 117/52/2 55/53/2 44/10/2
f 156/54/4 114/55/4 157/56/4
f 54/57/8 144/58/8 55/59/8
f 145/60/11 147/61/11 146/62/11
f 1/28/5 28/63/5 27/64/5
f 41/65/12 145/66/12 146/67/12
f 9/68/5 19/19/5 16/29/5
f 26/69/2 44/10/2 40/70/2
f 118/51/7 42/71/7 21/38/7
f 45/72/13 123/73/13 126/74/13
f 32/75/14 120/76/14 119/77/14
f 129/78/13 126/74/13 130/79/13
f 48/80/8 50/81/8 49/82/8
f 40/70/2 38/12/2 39/83/2
f 25/84/8 55/59/8 24/45/8
f 4/23/2 143/85/2 8/86/2
f 5/22/2 49/87/2 4/23/2
f 35/88/3 51/89/3 34/90/3
f 57/91/5 59/92/5 58/93/5
f 59/92/5 61/94/5 62/95/5
f 58/93/5 63/96/5 57/91/5
f 33/97/15 119/77/15 116/98/15
f 43/13/3 36/99/3 54/100/3
f 130/101/3 127/102/3 131/103/3
f 69/104/5 111/105/5 67/106/5
f 78/107/4 71/108/4 76/109/4
f 76/109/4 72/110/4 77/111/4
f 71/112/8 73/113/8 72/114/8
f 70/115/8 74/116/8 71/112/8
f 90/117/8 84/118/8 91/119/8
f 77/120/2 73/121/2 81/122/2
f 98/123/4 106/124/4 92/125/4
f 87/126/2 94/127/2 88/128/2
f 65/129/5 79/130/5 66/131/5
f 69/132/3 78/133/3 68/134/3
f 56/135/2 81/122/2 65/136/2
f 66/131/5 80/137/5 69/138/5
f 3/139/4 77/111/4 56/140/4
f 68/141/4 76/109/4 3/139/4
f 85/142/5 82/143/5 86/144/5
f 87/145/5 83/146/5 85/142/5
f 93/147/8 104/148/8 82/149/8
f 89/150/4 98/123/4 92/125/4
f 91/151/2 87/126/2 88/128/2
f 93/147/8 83/152/8 90/117/8
f 75/153/8 90/154/8 74/116/8
f 73/121/2 88/128/2 81/122/2
f 79/155/1 92/156/1 80/157/1
f 97/158/1 108/159/1 98/160/1
f 81/161/1 89/162/1 79/155/1
f 74/116/8 91/163/8 73/113/8
f 94/164/1 96/165/1 99/166/1
f 99/166/1 97/158/1 98/160/1
f 85/142/5 95/167/5 87/145/5
f 82/143/5 105/168/5 86/144/5
f 86/144/5 96/169/5 85/142/5
f 88/170/4 99/171/4 89/150/4
f 103/172/3 100/173/3 102/174/3
f 106/175/3 104/176/3 107/177/3
f 103/172/3 107/177/3 101/178/3
f 106/175/3 109/179/3 105/180/3
f 75/153/8 107/181/8 93/182/8
f 86/144/5 109/183/5 97/184/5
f 78/107/4 100/173/4 70/185/4
f 80/157/1 102/186/1 78/187/1
f 92/156/1 103/188/1 80/157/1
f 70/115/8 101/189/8 75/153/8
f 110/190/8 113/191/8 112/192/8
f 68/193/2 113/194/2 69/195/2
f 67/196/3 110/197/3 2/198/3
f 2/199/4 112/200/4 68/201/4
f 8/86/2 26/69/2 13/202/2
f 137/203/8 51/204/8 48/80/8
f 9/68/5 122/205/5 18/25/5
f 126/206/3 125/207/3 127/102/3
f 26/208/11 41/209/11 118/51/11
f 17/210/2 129/211/2 16/212/2
f 9/213/3 131/103/3 121/214/3
f 16/215/13 130/79/13 9/216/13
f 7/41/2 135/217/2 5/22/2
f 135/217/2 48/218/2 5/22/2
f 51/89/3 136/219/3 34/90/3
f 4/23/2 13/202/2 12/5/2
f 8/86/2 24/220/2 117/52/2
f 12/221/16 139/37/16 14/222/16
f 50/81/8 143/46/8 49/82/8
f 141/43/3 50/223/3 35/88/3
f 14/222/7 140/39/7 11/224/7
f 23/225/17 21/226/17 32/32/17
f 140/227/18 10/228/18 11/229/18
f 53/230/19 37/231/19 39/232/19
f 39/83/2 145/233/2 40/70/2
f 41/234/3 147/235/3 53/236/3
f 141/237/8 148/238/8 31/239/8
f 34/240/8 150/241/8 35/242/8
f 136/243/8 149/244/8 34/240/8
f 35/242/8 154/245/8 141/237/8
f 31/239/8 151/246/8 43/247/8
f 43/247/8 152/248/8 52/249/8
f 42/250/4 157/56/4 115/251/4
f 42/252/4 155/253/4 156/16/4
f 42/254/20 32/32/20 21/226/20
f 32/255/21 157/256/21 119/257/21
f 157/258/22 120/259/22 115/260/22
f 133/261/23 161/262/23 135/217/23
f 134/263/4 158/264/4 132/265/4
f 132/40/4 159/266/4 133/261/4
f 161/262/3 163/267/3 165/268/3
f 160/269/3 162/270/3 158/271/3
f 158/272/3 163/267/3 159/266/3
f 28/273/24 168/274/24 169/275/24
f 169/275/1 167/276/1 28/273/1
f 29/277/1 171/278/1 168/274/1
f 45/72/1 173/279/1 124/280/1
f 129/78/1 172/281/1 45/72/1
f 42/1/1 115/282/1 120/2/1
f 15/4/2 7/41/2 12/5/2
f 134/7/2 132/40/2 15/4/2
f 6/8/2 15/4/2 18/6/2
f 44/10/2 55/53/2 144/11/2
f 43/13/3 54/100/3 25/14/3
f 156/16/4 155/253/4 46/17/4
f 19/19/5 14/24/5 11/20/5
f 12/5/2 7/41/2 5/22/2
f 14/24/5 19/19/5 18/25/5
f 20/27/5 19/19/5 10/21/5
f 16/29/5 19/19/5 20/27/5
f 22/31/25 23/225/25 32/32/25
f 22/34/4 30/283/4 29/35/4
f 139/37/7 118/51/7 21/38/7
f 132/40/2 133/261/2 7/41/2
f 31/15/3 25/14/3 142/42/3
f 142/44/8 25/84/8 24/45/8
f 10/47/9 23/284/9 29/48/9
f 13/50/11 26/208/11 118/51/11
f 117/52/2 24/220/2 55/53/2
f 156/54/4 47/285/4 114/55/4
f 54/57/8 36/286/8 144/58/8
f 145/60/11 37/287/11 147/61/11
f 1/28/5 10/21/5 28/63/5
f 41/65/12 40/288/12 145/66/12
f 9/68/5 18/25/5 19/19/5
f 26/69/2 117/52/2 44/10/2
f 118/51/7 41/209/7 42/71/7
f 45/72/13 124/280/13 123/73/13
f 32/75/14 21/289/14 120/76/14
f 129/78/13 45/72/13 126/74/13
f 48/80/8 51/204/8 50/81/8
f 40/70/2 44/10/2 38/12/2
f 25/84/8 54/57/8 55/59/8
f 4/23/2 49/87/2 143/85/2
f 5/22/2 48/218/2 49/87/2
f 35/88/3 50/223/3 51/89/3
f 57/91/5 60/290/5 59/92/5
f 59/92/5 60/290/5 61/94/5
f 58/93/5 64/291/5 63/96/5
f 33/97/15 32/75/15 119/77/15
f 43/13/3 52/292/3 36/99/3
f 130/101/3 126/206/3 127/102/3
f 69/104/5 113/293/5 111/105/5
f 78/107/4 70/185/4 71/108/4
f 76/109/4 71/108/4 72/110/4
f 71/112/8 74/116/8 73/113/8
f 70/115/8 75/153/8 74/116/8
f 90/117/8 83/152/8 84/118/8
f 77/120/2 72/294/2 73/121/2
f 98/123/4 108/295/4 106/124/4
f 87/126/2 95/296/2 94/127/2
f 65/129/5 81/297/5 79/130/5
f 69/132/3 80/298/3 78/133/3
f 56/135/2 77/120/2 81/122/2
f 66/131/5 79/130/5 80/137/5
f 3/139/4 76/109/4 77/111/4
f 68/141/4 78/107/4 76/109/4
f 85/142/5 83/146/5 82/143/5
f 87/145/5 84/299/5 83/146/5
f 93/147/8 107/300/8 104/148/8
f 89/150/4 99/171/4 98/123/4
f 91/151/2 84/301/2 87/126/2
f 93/147/8 82/149/8 83/152/8
f 75/153/8 93/182/8 90/154/8
f 73/121/2 91/151/2 88/128/2
f 79/155/1 89/162/1 92/156/1
f 97/158/1 109/302/1 108/159/1
f 81/161/1 88/303/1 89/162/1
f 74/116/8 90/154/8 91/163/8
f 94/164/1 95/304/1 96/165/1
f 99/166/1 96/165/1 97/158/1
f 85/142/5 96/169/5 95/167/5
f 82/143/5 104/305/5 105/168/5
f 86/144/5 97/184/5 96/169/5
f 88/170/4 94/306/4 99/171/4
f 103/172/3 101/178/3 100/173/3
f 106/175/3 105/180/3 104/176/3
f 103/172/3 106/175/3 107/177/3
f 106/175/3 108/307/3 109/179/3
f 75/153/8 101/189/8 107/181/8
f 86/144/5 105/168/5 109/183/5
f 78/107/4 102/308/4 100/173/4
f 80/157/1 103/188/1 102/186/1
f 92/156/1 106/309/1 103/188/1
f 70/115/8 100/310/8 101/189/8
f 110/190/8 111/311/8 113/191/8
f 68/193/2 112/312/2 113/194/2
f 67/196/3 111/313/3 110/197/3
f 2/199/4 110/314/4 112/200/4
f 8/86/2 117/52/2 26/69/2
f 137/203/8 138/315/8 51/204/8
f 9/68/5 121/316/5 122/205/5
f 126/206/3 123/317/3 125/207/3
f 26/208/11 40/318/11 41/209/11
f 17/210/2 128/319/2 129/211/2
f 9/213/3 130/101/3 131/103/3
f 16/215/13 129/78/13 130/79/13
f 7/41/2 133/261/2 135/217/2
f 135/217/2 137/320/2 48/218/2
f 51/89/3 138/321/3 136/219/3
f 4/23/2 8/86/2 13/202/2
f 8/86/2 143/85/2 24/220/2
f 12/221/10 13/50/10 139/37/10
f 50/81/8 142/44/8 143/46/8
f 141/43/3 142/42/3 50/223/3
f 14/222/7 139/37/7 140/39/7
f 23/225/26 140/227/26 21/226/26
f 140/227/27 23/225/27 10/228/27
f 53/230/19 147/322/19 37/231/19
f 39/83/2 37/323/2 145/233/2
f 41/234/3 146/324/3 147/235/3
f 141/237/8 154/245/8 148/238/8
f 34/240/8 149/244/8 150/241/8
f 136/243/8 153/325/8 149/244/8
f 35/242/8 150/241/8 154/245/8
f 31/239/8 148/238/8 151/246/8
f 43/247/8 151/246/8 152/248/8
f 42/250/4 156/54/4 157/56/4
f 42/252/4 41/326/4 155/253/4
f 42/254/28 156/327/28 32/32/28
f 32/255/29 156/328/29 157/256/29
f 157/258/30 119/329/30 120/259/30
f 133/261/23 159/266/23 161/262/23
f 134/263/4 160/330/4 158/264/4
f 132/40/4 158/272/4 159/266/4
f 161/262/3 159/266/3 163/267/3
f 160/269/3 164/331/3 162/270/3
f 158/272/3 162/332/3 163/267/3
f 28/273/24 29/277/24 168/274/24
f 169/275/1 166/333/1 167/276/1
f 29/277/1 170/334/1 171/278/1
f 45/72/1 172/281/1 173/279/1
f 129/78/1 174/335/1 172/281/1
