# Blender v2.79 (sub 0) OBJ File: 'pica4.blend'
# www.blender.org
mtllib pica_stairs.mtl
o Pica_stairs_Plane.003
v 4.024694 0.000000 -8.049388
v 0.000000 0.000000 -8.049388
v 4.024697 0.100000 -8.049388
v 0.000000 0.100000 -8.049388
v 4.024697 0.100000 -8.441156
v 0.000000 0.100000 -8.441156
v -4.024697 0.100000 -8.441156
v 4.024697 0.301521 -8.441156
v 0.000000 0.301521 -8.441156
v -4.024697 0.301521 -8.441156
v 4.024697 0.301521 -8.832922
v 0.000000 0.301521 -8.832922
v -4.024697 0.301521 -8.832922
v 4.024697 0.503041 -8.832922
v 0.000000 0.503041 -8.832922
v -4.024697 0.503041 -8.832922
v 4.024697 0.503041 -9.224689
v 0.000000 0.503041 -9.224689
v -4.024697 0.503041 -9.224689
v 4.024697 0.744866 -9.224689
v 0.000000 0.744866 -9.224689
v -4.024697 0.744866 -9.224689
v 4.024697 0.744866 -9.616458
v 0.000000 0.744866 -9.616458
v -4.024697 0.744866 -9.616458
v 4.024697 0.946387 -9.616458
v 0.000000 0.946387 -9.616458
v -4.024697 0.946387 -9.616458
v 4.024697 0.946387 -10.008224
v 0.000000 0.946387 -10.008224
v -4.024697 0.946387 -10.008224
v 4.024697 1.147907 -10.008224
v 0.000000 1.147907 -10.008224
v -4.024697 1.147907 -10.008224
v 4.024697 1.147907 -10.399993
v 0.000000 1.147907 -10.399993
v -4.024697 1.147907 -10.399993
v 4.024697 1.147907 -11.575294
v 0.000000 1.147907 -11.575294
v -4.024697 1.147907 -11.575294
v 4.024697 1.349428 -11.575294
v 0.000000 1.349428 -11.575294
v -4.024697 1.349428 -11.575294
v 4.024697 1.349428 -11.967064
v 0.000000 1.349428 -11.967064
v -4.024697 1.349428 -11.967064
v 4.024697 1.550949 -11.967064
v 0.000000 1.550949 -11.967064
v -4.024697 1.550949 -11.967064
v 4.024697 1.550949 -12.358829
v 0.000000 1.550949 -12.358829
v -4.024697 1.550949 -12.358829
v 4.024697 1.752469 -12.358829
v 0.000000 1.752469 -12.358829
v -4.024697 1.752469 -12.358829
v 4.024697 1.752469 -12.750598
v 0.000000 1.752469 -12.750598
v -4.024697 1.752469 -12.750598
v 4.024697 1.953990 -12.750598
v 0.000000 1.953990 -12.750598
v -4.024697 1.953990 -12.750598
v 4.024697 1.953990 -13.142365
v 0.000000 1.953990 -13.142365
v -4.024697 1.953990 -13.142365
v 4.024697 2.155510 -13.142365
v 0.000000 2.155510 -13.142365
v -4.024697 2.155510 -13.142365
v 4.024697 2.155510 -13.534134
v 0.000000 2.155510 -13.534134
v -4.024697 2.155510 -13.534134
v 4.024697 2.155510 -14.709436
v 0.000000 2.155510 -14.709436
v -4.024697 2.155510 -14.709436
v 4.024697 2.357031 -14.709436
v 0.000000 2.357031 -14.709436
v -4.024697 2.357031 -14.709436
v 4.024697 2.357031 -15.101205
v 0.000000 2.357031 -15.101205
v -4.024697 2.357031 -15.101205
v 4.024697 2.558552 -15.101205
v 0.000000 2.558552 -15.101205
v -4.024697 2.558552 -15.101205
v 4.024697 2.558552 -15.492972
v 0.000000 2.558552 -15.492972
v -4.024697 2.558552 -15.492972
v 4.024697 2.760072 -15.492972
v 0.000000 2.760072 -15.492972
v -4.024697 2.760072 -15.492972
v 4.024697 2.760072 -15.884740
v 0.000000 2.760072 -15.884740
v -4.024697 2.760072 -15.884740
v 4.024697 2.961593 -15.884740
v 0.000000 2.961593 -15.884740
v -4.024697 2.961593 -15.884740
v 4.024697 2.961593 -16.276510
v 0.000000 2.961593 -16.276510
v -4.024697 2.961593 -16.276510
v 4.024697 3.163114 -16.276510
v 0.000000 3.163114 -16.276510
v -4.024697 3.163114 -16.276510
v 4.024697 3.163114 -16.668276
v 0.000000 3.163114 -16.668276
v -4.024697 3.163114 -16.668276
v 4.024697 3.163114 -17.843575
v 0.000000 3.163114 -17.843575
v -4.024697 3.163114 -17.843575
v 0.000000 3.091212 -16.276510
v -4.024697 3.091212 -16.276510
v 4.024697 3.091212 -16.276510
v 0.000000 3.150573 -16.276510
v 4.024697 3.150573 -16.276510
v -4.024697 3.150573 -16.276510
v -4.024697 0.100000 -8.049388
v -4.024694 0.000000 -8.049388
v 2.760378 0.000000 -8.049388
v 2.760380 0.100000 -8.049388
v 2.760380 0.100000 -8.441156
v 2.760380 0.301521 -8.441156
v 2.760380 0.301521 -8.832922
v 2.760380 0.503041 -8.832922
v 2.760380 0.503041 -9.224689
v 2.760380 0.744866 -9.224689
v 2.760380 0.744866 -9.616458
v 2.760380 0.946387 -9.616458
v 2.760380 0.946387 -10.008224
v 2.760380 1.147907 -10.008224
v 2.760380 1.147907 -10.399993
v 2.760380 1.147907 -11.575294
v 2.760380 1.349428 -11.575294
v 2.760380 1.349428 -11.967064
v 2.760380 1.550949 -11.967064
v 2.760380 1.550949 -12.358829
v 2.760380 1.752469 -12.358829
v 2.760380 1.752469 -12.750598
v 2.760380 1.953990 -12.750598
v 2.760380 1.953990 -13.142365
v 2.760380 2.155510 -13.142365
v 2.760380 2.155510 -13.534134
v 2.760380 2.155510 -14.709436
v 2.760380 2.357031 -14.709436
v 2.760380 2.357031 -15.101205
v 2.760380 2.558552 -15.101205
v 2.760380 2.558552 -15.492972
v 2.760380 2.760072 -15.492972
v 2.760380 2.760072 -15.884740
v 2.760380 2.961593 -15.884740
v 2.760380 2.961593 -16.276510
v 2.760380 3.163114 -16.276510
v 2.760380 3.163114 -16.668276
v 2.760380 3.163114 -17.843575
v 2.760380 3.091212 -16.276510
v 2.760380 3.150573 -16.276510
v -3.041788 0.000000 -8.049388
v -3.041790 0.100000 -8.049388
v -3.041790 0.100000 -8.441156
v -3.041790 0.301521 -8.441156
v -3.041790 0.301521 -8.832922
v -3.041790 0.503041 -8.832922
v -3.041790 0.503041 -9.224689
v -3.041790 0.744866 -9.224689
v -3.041790 0.744866 -9.616458
v -3.041790 0.946387 -9.616458
v -3.041790 0.946387 -10.008224
v -3.041790 1.147907 -10.008224
v -3.041790 1.147907 -10.399993
v -3.041790 1.147907 -11.575294
v -3.041790 1.349428 -11.575294
v -3.041790 1.349428 -11.967064
v -3.041790 1.550949 -11.967064
v -3.041790 1.550949 -12.358829
v -3.041790 1.752469 -12.358829
v -3.041790 1.752469 -12.750598
v -3.041790 1.953990 -12.750598
v -3.041790 1.953990 -13.142365
v -3.041790 2.155510 -13.142365
v -3.041790 2.155510 -13.534134
v -3.041790 2.155510 -14.709436
v -3.041790 2.357031 -14.709436
v -3.041790 2.357031 -15.101205
v -3.041790 2.558552 -15.101205
v -3.041790 2.558552 -15.492972
v -3.041790 2.760072 -15.492972
v -3.041790 2.760072 -15.884740
v -3.041790 2.961593 -15.884740
v -3.041790 2.961593 -16.276510
v -3.041790 3.163114 -16.276510
v -3.041790 3.163114 -16.668276
v -3.041790 3.163114 -17.843575
v -3.041790 3.091212 -16.276510
v -3.041790 3.150573 -16.276510
vt 0.981552 0.073431
vt 0.966862 0.249023
vt 0.966862 0.073431
vt 0.981552 0.481355
vt 0.966862 0.408371
vt 0.981552 0.408371
vt 0.310761 0.740879
vt 0.290899 0.553234
vt 0.310761 0.553234
vt 0.310761 0.989157
vt 0.290899 0.911163
vt 0.310761 0.911163
vt 0.582016 0.249023
vt 0.611619 0.424616
vt 0.582016 0.424616
vt 0.582015 0.016691
vt 0.611619 0.089676
vt 0.582016 0.089676
vt 0.489522 0.740879
vt 0.469660 0.553234
vt 0.489522 0.553234
vt 0.489522 0.989157
vt 0.469660 0.911163
vt 0.489522 0.911163
vt 0.818845 0.249023
vt 0.848448 0.424616
vt 0.818845 0.424616
vt 0.818845 0.016691
vt 0.848448 0.089676
vt 0.818845 0.089676
vt 0.350486 0.740879
vt 0.330624 0.553234
vt 0.350486 0.553234
vt 0.350486 0.989157
vt 0.330624 0.911163
vt 0.350486 0.911163
vt 0.516888 0.249023
vt 0.552412 0.424616
vt 0.516888 0.424616
vt 0.516888 0.016691
vt 0.552412 0.089676
vt 0.516888 0.089676
vt 0.330624 0.740879
vt 0.310761 0.553234
vt 0.330624 0.553234
vt 0.330624 0.989157
vt 0.310761 0.911163
vt 0.330624 0.911163
vt 0.552412 0.249023
vt 0.582015 0.424616
vt 0.552412 0.424616
vt 0.552412 0.016691
vt 0.582015 0.089676
vt 0.552412 0.089676
vt 0.449798 0.740879
vt 0.429935 0.553234
vt 0.449798 0.553234
vt 0.449798 0.989157
vt 0.429935 0.911163
vt 0.449798 0.911163
vt 0.848448 0.249023
vt 0.878052 0.424616
vt 0.848448 0.424616
vt 0.848448 0.016691
vt 0.878051 0.089676
vt 0.848448 0.089676
vt 0.171725 0.740879
vt 0.151863 0.553234
vt 0.171725 0.553234
vt 0.171725 0.989157
vt 0.151863 0.911163
vt 0.171725 0.911163
vt 0.151863 0.740879
vt 0.092276 0.553234
vt 0.151863 0.989157
vt 0.092276 0.911163
vt 0.789241 0.249023
vt 0.818845 0.424616
vt 0.789241 0.424616
vt 0.789241 0.016691
vt 0.818844 0.089676
vt 0.789241 0.089676
vt 0.271037 0.740879
vt 0.251174 0.553234
vt 0.271037 0.553234
vt 0.271037 0.989157
vt 0.251174 0.911163
vt 0.271037 0.911163
vt 0.641223 0.249023
vt 0.670826 0.424616
vt 0.641223 0.424616
vt 0.641223 0.016691
vt 0.670826 0.089676
vt 0.641223 0.089676
vt 0.509384 0.740879
vt 0.489522 0.553234
vt 0.509384 0.553234
vt 0.509384 0.989157
vt 0.489522 0.911163
vt 0.509384 0.911163
vt 0.670827 0.249023
vt 0.700430 0.424616
vt 0.670827 0.424616
vt 0.670827 0.016691
vt 0.700430 0.089676
vt 0.670827 0.089676
vt 0.370348 0.740879
vt 0.350486 0.553234
vt 0.370348 0.553234
vt 0.370348 0.989157
vt 0.350486 0.911163
vt 0.370348 0.911163
vt 0.730034 0.249023
vt 0.759637 0.424616
vt 0.730034 0.424616
vt 0.730034 0.016691
vt 0.759637 0.089676
vt 0.730034 0.089676
vt 0.390211 0.740879
vt 0.370348 0.553234
vt 0.390211 0.553234
vt 0.390211 0.989157
vt 0.370348 0.911163
vt 0.390211 0.911163
vt 0.878052 0.249023
vt 0.907655 0.424616
vt 0.878052 0.424616
vt 0.878052 0.016691
vt 0.907655 0.089676
vt 0.878052 0.089676
vt 0.092276 0.740879
vt 0.072414 0.553234
vt 0.092276 0.553234
vt 0.092276 0.989157
vt 0.072414 0.911163
vt 0.092276 0.911163
vt 0.072414 0.740879
vt 0.012827 0.553234
vt 0.072414 0.989157
vt 0.012827 0.911163
vt 0.700430 0.249023
vt 0.730034 0.424616
vt 0.700430 0.424616
vt 0.700430 0.016691
vt 0.730034 0.089676
vt 0.700430 0.089676
vt 0.410073 0.740879
vt 0.390211 0.553234
vt 0.410073 0.553234
vt 0.410073 0.989157
vt 0.390211 0.911163
vt 0.410073 0.911163
vt 0.937259 0.249023
vt 0.966862 0.424616
vt 0.937259 0.424616
vt 0.937259 0.016691
vt 0.966862 0.089676
vt 0.937259 0.089676
vt 0.429935 0.740879
vt 0.410073 0.553234
vt 0.429935 0.553234
vt 0.429935 0.989157
vt 0.410073 0.911163
vt 0.429935 0.911163
vt 0.611619 0.249023
vt 0.641223 0.424616
vt 0.611619 0.424616
vt 0.611619 0.016691
vt 0.641223 0.089676
vt 0.611619 0.089676
vt 0.469660 0.740879
vt 0.449798 0.553234
vt 0.469660 0.553234
vt 0.469660 0.989157
vt 0.449798 0.911163
vt 0.469660 0.911163
vt 0.759638 0.249023
vt 0.789241 0.424616
vt 0.759638 0.424616
vt 0.759637 0.016691
vt 0.789241 0.089676
vt 0.759637 0.089676
vt 0.290899 0.740879
vt 0.271037 0.553234
vt 0.290899 0.553234
vt 0.290899 0.989157
vt 0.271037 0.911163
vt 0.290899 0.911163
vt 0.935416 0.249023
vt 0.937259 0.424616
vt 0.935416 0.424616
vt 0.553094 0.912118
vt 0.553174 0.920182
vt 0.553094 0.920182
vt 0.251174 0.740879
vt 0.231312 0.553234
vt 0.251174 0.553234
vt 0.251174 0.989157
vt 0.231312 0.911163
vt 0.251174 0.911163
vt 0.231312 0.740879
vt 0.171725 0.553234
vt 0.231312 0.989157
vt 0.171725 0.911163
vt 0.907655 0.016691
vt 0.926696 0.089676
vt 0.907655 0.089676
vt 0.907655 0.249023
vt 0.926696 0.424616
vt 0.907655 0.424616
vt 0.926696 0.016691
vt 0.935416 0.089676
vt 0.926696 0.249023
vt 0.171725 0.740879
vt 0.937259 0.249023
vt 0.271037 0.740879
vt 0.789241 0.249023
vt 0.449798 0.740879
vt 0.641223 0.249023
vt 0.410073 0.740879
vt 0.966862 0.249023
vt 0.390211 0.740879
vt 0.730034 0.249023
vt 0.012827 0.740879
vt 0.907655 0.249023
vt 0.370348 0.740879
vt 0.759637 0.249023
vt 0.350486 0.740879
vt 0.700430 0.249023
vt 0.489522 0.740879
vt 0.670826 0.249023
vt 0.251174 0.740879
vt 0.818844 0.249023
vt 0.092276 0.740879
vt 0.878051 0.249023
vt 0.429935 0.740879
vt 0.582015 0.249023
vt 0.310761 0.740879
vt 0.552412 0.249023
vt 0.330624 0.740879
vt 0.848448 0.249023
vt 0.469660 0.740879
vt 0.611619 0.249023
vt 0.290899 0.740879
vt 0.981552 0.249023
vt 0.935416 0.481355
vt 0.926696 0.481355
vt 0.907655 0.481355
vt 0.171725 0.492600
vt 0.231312 0.492600
vt 0.251174 0.492600
vt 0.937259 0.481355
vt 0.271037 0.492600
vt 0.290899 0.492600
vt 0.789241 0.481355
vt 0.759638 0.481355
vt 0.449798 0.492600
vt 0.469660 0.492600
vt 0.641223 0.481355
vt 0.611619 0.481355
vt 0.410073 0.492600
vt 0.429935 0.492600
vt 0.966862 0.481355
vt 0.937259 0.481355
vt 0.390211 0.492600
vt 0.410073 0.492600
vt 0.730034 0.481355
vt 0.700430 0.481355
vt 0.012827 0.492600
vt 0.072414 0.492600
vt 0.092276 0.492600
vt 0.907655 0.481355
vt 0.878052 0.481355
vt 0.370348 0.492600
vt 0.390211 0.492600
vt 0.759637 0.481355
vt 0.730034 0.481355
vt 0.350486 0.492600
vt 0.370348 0.492600
vt 0.700430 0.481355
vt 0.670827 0.481355
vt 0.489522 0.492600
vt 0.509384 0.492600
vt 0.670827 0.481355
vt 0.641223 0.481355
vt 0.251174 0.492600
vt 0.271037 0.492600
vt 0.818845 0.481355
vt 0.789241 0.481355
vt 0.092276 0.492600
vt 0.151863 0.492600
vt 0.171725 0.492600
vt 0.878052 0.481355
vt 0.848448 0.481355
vt 0.429935 0.492600
vt 0.449798 0.492600
vt 0.582015 0.481355
vt 0.552412 0.481355
vt 0.310761 0.492600
vt 0.330624 0.492600
vt 0.552412 0.481355
vt 0.516888 0.481355
vt 0.330624 0.492600
vt 0.350486 0.492600
vt 0.848448 0.481355
vt 0.818845 0.481355
vt 0.469660 0.492600
vt 0.489522 0.492600
vt 0.611619 0.481355
vt 0.582016 0.481355
vt 0.290899 0.492600
vt 0.310761 0.492600
vt 0.981552 0.016691
vt 0.966862 0.016691
vt 0.966862 0.481355
vt 0.290899 0.989157
vt 0.611619 0.016691
vt 0.469660 0.989157
vt 0.848448 0.016691
vt 0.330624 0.989157
vt 0.552412 0.016691
vt 0.310761 0.989157
vt 0.582015 0.016691
vt 0.429935 0.989157
vt 0.878051 0.016691
vt 0.092276 0.989157
vt 0.818844 0.016691
vt 0.251174 0.989157
vt 0.670826 0.016691
vt 0.489522 0.989157
vt 0.700430 0.016691
vt 0.350486 0.989157
vt 0.759637 0.016691
vt 0.370348 0.989157
vt 0.907655 0.016691
vt 0.012827 0.989157
vt 0.730034 0.016691
vt 0.390211 0.989157
vt 0.966862 0.016691
vt 0.410073 0.989157
vt 0.641223 0.016691
vt 0.449798 0.989157
vt 0.789241 0.016691
vt 0.271037 0.989157
vt 0.553174 0.912118
vt 0.171725 0.989157
vt 0.935416 0.016691
vt 0.937259 0.089676
vn 0.0000 0.0000 1.0000
vn 0.0000 1.0000 0.0000
usemtl Material.003
s off
f 153/1/1 4/2/1 154/3/1
f 1/4/1 116/5/1 115/6/1
f 4/7/2 155/8/2 154/9/2
f 3/10/2 117/11/2 116/12/2
f 6/13/1 156/14/1 155/15/1
f 5/16/1 118/17/1 117/18/1
f 9/19/2 157/20/2 156/21/2
f 8/22/2 119/23/2 118/24/2
f 12/25/1 158/26/1 157/27/1
f 11/28/1 120/29/1 119/30/1
f 15/31/2 159/32/2 158/33/2
f 14/34/2 121/35/2 120/36/2
f 18/37/1 160/38/1 159/39/1
f 17/40/1 122/41/1 121/42/1
f 21/43/2 161/44/2 160/45/2
f 20/46/2 123/47/2 122/48/2
f 24/49/1 162/50/1 161/51/1
f 23/52/1 124/53/1 123/54/1
f 27/55/2 163/56/2 162/57/2
f 26/58/2 125/59/2 124/60/2
f 30/61/1 164/62/1 163/63/1
f 29/64/1 126/65/1 125/66/1
f 33/67/2 165/68/2 164/69/2
f 32/70/2 127/71/2 126/72/2
f 36/73/2 166/74/2 165/68/2
f 35/75/2 128/76/2 127/71/2
f 39/77/1 167/78/1 166/79/1
f 38/80/1 129/81/1 128/82/1
f 42/83/2 168/84/2 167/85/2
f 41/86/2 130/87/2 129/88/2
f 45/89/1 169/90/1 168/91/1
f 44/92/1 131/93/1 130/94/1
f 48/95/2 170/96/2 169/97/2
f 47/98/2 132/99/2 131/100/2
f 51/101/1 171/102/1 170/103/1
f 50/104/1 133/105/1 132/106/1
f 54/107/2 172/108/2 171/109/2
f 53/110/2 134/111/2 133/112/2
f 57/113/1 173/114/1 172/115/1
f 56/116/1 135/117/1 134/118/1
f 60/119/2 174/120/2 173/121/2
f 59/122/2 136/123/2 135/124/2
f 63/125/1 175/126/1 174/127/1
f 62/128/1 137/129/1 136/130/1
f 66/131/2 176/132/2 175/133/2
f 65/134/2 138/135/2 137/136/2
f 69/137/2 177/138/2 176/132/2
f 68/139/2 139/140/2 138/135/2
f 72/141/1 178/142/1 177/143/1
f 71/144/1 140/145/1 139/146/1
f 75/147/2 179/148/2 178/149/2
f 74/150/2 141/151/2 140/152/2
f 78/153/1 180/154/1 179/155/1
f 77/156/1 142/157/1 141/158/1
f 81/159/2 181/160/2 180/161/2
f 80/162/2 143/163/2 142/164/2
f 84/165/1 182/166/1 181/167/1
f 83/168/1 144/169/1 143/170/1
f 87/171/2 183/172/2 182/173/2
f 86/174/2 145/175/2 144/176/2
f 90/177/1 184/178/1 183/179/1
f 89/180/1 146/181/1 145/182/1
f 93/183/2 185/184/2 184/185/2
f 92/186/2 147/187/2 146/188/2
f 110/189/1 186/190/1 190/191/1
f 111/192/1 148/193/1 152/194/1
f 99/195/2 187/196/2 186/197/2
f 98/198/2 149/199/2 148/200/2
f 102/201/2 188/202/2 187/196/2
f 101/203/2 150/204/2 149/199/2
f 95/205/1 151/206/1 147/207/1
f 96/208/1 189/209/1 185/210/1
f 109/211/1 152/212/1 151/206/1
f 107/213/1 190/191/1 189/209/1
f 151/206/1 110/189/1 107/213/1
f 147/207/1 107/213/1 96/208/1
f 149/199/2 105/214/2 102/201/2
f 148/200/2 102/201/2 99/195/2
f 152/212/1 99/215/1 110/189/1
f 146/188/2 96/216/2 93/183/2
f 145/182/1 93/217/1 90/177/1
f 144/176/2 90/218/2 87/171/2
f 143/170/1 87/219/1 84/165/1
f 142/164/2 84/220/2 81/159/2
f 141/158/1 81/221/1 78/153/1
f 140/152/2 78/222/2 75/147/2
f 139/146/1 75/223/1 72/141/1
f 138/135/2 72/224/2 69/137/2
f 137/136/2 69/137/2 66/131/2
f 136/130/1 66/225/1 63/125/1
f 135/124/2 63/226/2 60/119/2
f 134/118/1 60/227/1 57/113/1
f 133/112/2 57/228/2 54/107/2
f 132/106/1 54/229/1 51/101/1
f 131/100/2 51/230/2 48/95/2
f 130/94/1 48/231/1 45/89/1
f 129/88/2 45/232/2 42/83/2
f 128/82/1 42/233/1 39/77/1
f 127/71/2 39/234/2 36/73/2
f 126/72/2 36/73/2 33/67/2
f 125/66/1 33/235/1 30/61/1
f 124/60/2 30/236/2 27/55/2
f 123/54/1 27/237/1 24/49/1
f 122/48/2 24/238/2 21/43/2
f 121/42/1 21/239/1 18/37/1
f 120/36/2 18/240/2 15/31/2
f 119/30/1 15/241/1 12/25/1
f 118/24/2 12/242/2 9/19/2
f 117/18/1 9/243/1 6/13/1
f 116/12/2 6/244/2 4/7/2
f 115/6/1 4/2/1 2/245/1
f 189/209/1 112/246/1 108/247/1
f 185/210/1 108/247/1 97/248/1
f 187/196/2 106/249/2 103/250/2
f 186/197/2 103/250/2 100/251/2
f 190/191/1 100/252/1 112/246/1
f 184/185/2 97/253/2 94/254/2
f 183/179/1 94/255/1 91/256/1
f 182/173/2 91/257/2 88/258/2
f 181/167/1 88/259/1 85/260/1
f 180/161/2 85/261/2 82/262/2
f 179/155/1 82/263/1 79/264/1
f 178/149/2 79/265/2 76/266/2
f 177/143/1 76/267/1 73/268/1
f 176/132/2 73/269/2 70/270/2
f 175/133/2 70/270/2 67/271/2
f 174/127/1 67/272/1 64/273/1
f 173/121/2 64/274/2 61/275/2
f 172/115/1 61/276/1 58/277/1
f 171/109/2 58/278/2 55/279/2
f 170/103/1 55/280/1 52/281/1
f 169/97/2 52/282/2 49/283/2
f 168/91/1 49/284/1 46/285/1
f 167/85/2 46/286/2 43/287/2
f 166/79/1 43/288/1 40/289/1
f 165/68/2 40/290/2 37/291/2
f 164/69/2 37/291/2 34/292/2
f 163/63/1 34/293/1 31/294/1
f 162/57/2 31/295/2 28/296/2
f 161/51/1 28/297/1 25/298/1
f 160/45/2 25/299/2 22/300/2
f 159/39/1 22/301/1 19/302/1
f 158/33/2 19/303/2 16/304/2
f 157/27/1 16/305/1 13/306/1
f 156/21/2 13/307/2 10/308/2
f 155/15/1 10/309/1 7/310/1
f 154/9/2 7/311/2 113/312/2
f 114/313/1 154/3/1 113/314/1
f 153/1/1 2/245/1 4/2/1
f 1/4/1 3/315/1 116/5/1
f 4/7/2 6/244/2 155/8/2
f 3/10/2 5/316/2 117/11/2
f 6/13/1 9/243/1 156/14/1
f 5/16/1 8/317/1 118/17/1
f 9/19/2 12/242/2 157/20/2
f 8/22/2 11/318/2 119/23/2
f 12/25/1 15/241/1 158/26/1
f 11/28/1 14/319/1 120/29/1
f 15/31/2 18/240/2 159/32/2
f 14/34/2 17/320/2 121/35/2
f 18/37/1 21/239/1 160/38/1
f 17/40/1 20/321/1 122/41/1
f 21/43/2 24/238/2 161/44/2
f 20/46/2 23/322/2 123/47/2
f 24/49/1 27/237/1 162/50/1
f 23/52/1 26/323/1 124/53/1
f 27/55/2 30/236/2 163/56/2
f 26/58/2 29/324/2 125/59/2
f 30/61/1 33/235/1 164/62/1
f 29/64/1 32/325/1 126/65/1
f 33/67/2 36/73/2 165/68/2
f 32/70/2 35/75/2 127/71/2
f 36/73/2 39/234/2 166/74/2
f 35/75/2 38/326/2 128/76/2
f 39/77/1 42/233/1 167/78/1
f 38/80/1 41/327/1 129/81/1
f 42/83/2 45/232/2 168/84/2
f 41/86/2 44/328/2 130/87/2
f 45/89/1 48/231/1 169/90/1
f 44/92/1 47/329/1 131/93/1
f 48/95/2 51/230/2 170/96/2
f 47/98/2 50/330/2 132/99/2
f 51/101/1 54/229/1 171/102/1
f 50/104/1 53/331/1 133/105/1
f 54/107/2 57/228/2 172/108/2
f 53/110/2 56/332/2 134/111/2
f 57/113/1 60/227/1 173/114/1
f 56/116/1 59/333/1 135/117/1
f 60/119/2 63/226/2 174/120/2
f 59/122/2 62/334/2 136/123/2
f 63/125/1 66/225/1 175/126/1
f 62/128/1 65/335/1 137/129/1
f 66/131/2 69/137/2 176/132/2
f 65/134/2 68/139/2 138/135/2
f 69/137/2 72/224/2 177/138/2
f 68/139/2 71/336/2 139/140/2
f 72/141/1 75/223/1 178/142/1
f 71/144/1 74/337/1 140/145/1
f 75/147/2 78/222/2 179/148/2
f 74/150/2 77/338/2 141/151/2
f 78/153/1 81/221/1 180/154/1
f 77/156/1 80/339/1 142/157/1
f 81/159/2 84/220/2 181/160/2
f 80/162/2 83/340/2 143/163/2
f 84/165/1 87/219/1 182/166/1
f 83/168/1 86/341/1 144/169/1
f 87/171/2 90/218/2 183/172/2
f 86/174/2 89/342/2 145/175/2
f 90/177/1 93/217/1 184/178/1
f 89/180/1 92/343/1 146/181/1
f 93/183/2 96/216/2 185/184/2
f 92/186/2 95/344/2 147/187/2
f 110/189/1 99/215/1 186/190/1
f 111/192/1 98/345/1 148/193/1
f 99/195/2 102/201/2 187/196/2
f 98/198/2 101/203/2 149/199/2
f 102/201/2 105/214/2 188/202/2
f 101/203/2 104/346/2 150/204/2
f 95/205/1 109/211/1 151/206/1
f 96/208/1 107/213/1 189/209/1
f 109/211/1 111/347/1 152/212/1
f 107/213/1 110/189/1 190/191/1
f 151/206/1 152/212/1 110/189/1
f 147/207/1 151/206/1 107/213/1
f 149/199/2 150/204/2 105/214/2
f 148/200/2 149/199/2 102/201/2
f 152/212/1 148/348/1 99/215/1
f 146/188/2 147/187/2 96/216/2
f 145/182/1 146/181/1 93/217/1
f 144/176/2 145/175/2 90/218/2
f 143/170/1 144/169/1 87/219/1
f 142/164/2 143/163/2 84/220/2
f 141/158/1 142/157/1 81/221/1
f 140/152/2 141/151/2 78/222/2
f 139/146/1 140/145/1 75/223/1
f 138/135/2 139/140/2 72/224/2
f 137/136/2 138/135/2 69/137/2
f 136/130/1 137/129/1 66/225/1
f 135/124/2 136/123/2 63/226/2
f 134/118/1 135/117/1 60/227/1
f 133/112/2 134/111/2 57/228/2
f 132/106/1 133/105/1 54/229/1
f 131/100/2 132/99/2 51/230/2
f 130/94/1 131/93/1 48/231/1
f 129/88/2 130/87/2 45/232/2
f 128/82/1 129/81/1 42/233/1
f 127/71/2 128/76/2 39/234/2
f 126/72/2 127/71/2 36/73/2
f 125/66/1 126/65/1 33/235/1
f 124/60/2 125/59/2 30/236/2
f 123/54/1 124/53/1 27/237/1
f 122/48/2 123/47/2 24/238/2
f 121/42/1 122/41/1 21/239/1
f 120/36/2 121/35/2 18/240/2
f 119/30/1 120/29/1 15/241/1
f 118/24/2 119/23/2 12/242/2
f 117/18/1 118/17/1 9/243/1
f 116/12/2 117/11/2 6/244/2
f 115/6/1 116/5/1 4/2/1
f 189/209/1 190/191/1 112/246/1
f 185/210/1 189/209/1 108/247/1
f 187/196/2 188/202/2 106/249/2
f 186/197/2 187/196/2 103/250/2
f 190/191/1 186/190/1 100/252/1
f 184/185/2 185/184/2 97/253/2
f 183/179/1 184/178/1 94/255/1
f 182/173/2 183/172/2 91/257/2
f 181/167/1 182/166/1 88/259/1
f 180/161/2 181/160/2 85/261/2
f 179/155/1 180/154/1 82/263/1
f 178/149/2 179/148/2 79/265/2
f 177/143/1 178/142/1 76/267/1
f 176/132/2 177/138/2 73/269/2
f 175/133/2 176/132/2 70/270/2
f 174/127/1 175/126/1 67/272/1
f 173/121/2 174/120/2 64/274/2
f 172/115/1 173/114/1 61/276/1
f 171/109/2 172/108/2 58/278/2
f 170/103/1 171/102/1 55/280/1
f 169/97/2 170/96/2 52/282/2
f 168/91/1 169/90/1 49/284/1
f 167/85/2 168/84/2 46/286/2
f 166/79/1 167/78/1 43/288/1
f 165/68/2 166/74/2 40/290/2
f 164/69/2 165/68/2 37/291/2
f 163/63/1 164/62/1 34/293/1
f 162/57/2 163/56/2 31/295/2
f 161/51/1 162/50/1 28/297/1
f 160/45/2 161/44/2 25/299/2
f 159/39/1 160/38/1 22/301/1
f 158/33/2 159/32/2 19/303/2
f 157/27/1 158/26/1 16/305/1
f 156/21/2 157/20/2 13/307/2
f 155/15/1 156/14/1 10/309/1
f 154/9/2 155/8/2 7/311/2
f 114/313/1 153/1/1 154/3/1
