# Blender v2.79 (sub 0) OBJ File: 'jap1.blend'
# www.blender.org
o back_door_pane_Cube.017
v -0.071788 4.595173 7.227848
v -0.071788 0.155509 7.227848
v 0.092383 0.155509 7.227848
v 0.092383 4.595173 7.227848
v 2.850102 0.155509 7.227848
v 2.850102 4.595173 7.227848
v -2.829507 0.155509 7.227848
v -2.829507 4.595173 7.227848
v 2.850102 3.485257 7.227848
v 2.850102 2.375341 7.227848
v 2.850102 1.265425 7.227848
v 0.092383 3.485257 7.227848
v 0.092383 2.375341 7.227848
v 0.092383 1.265425 7.227848
v -0.071788 1.265425 7.227848
v -0.071788 2.375341 7.227848
v -0.071788 3.485257 7.227848
v -2.829507 3.485257 7.227848
v -2.829507 2.375341 7.227848
v -2.829507 1.265425 7.227848
v -0.761218 0.155509 7.227848
v -1.450647 0.155509 7.227848
v -2.140077 0.155509 7.227848
v -2.140077 4.595173 7.227848
v -1.450647 4.595173 7.227848
v -0.761218 4.595173 7.227848
v -2.140077 1.265425 7.227848
v -1.450647 1.265425 7.227848
v -0.761218 1.265425 7.227848
v -2.140077 2.375341 7.227848
v -1.450647 2.375341 7.227848
v -0.761218 2.375341 7.227848
v -2.140077 3.485257 7.227848
v -1.450647 3.485257 7.227848
v -0.761218 3.485257 7.227848
v 2.160672 0.155509 7.227848
v 1.471243 0.155509 7.227848
v 0.781813 0.155509 7.227848
v 2.160672 4.595173 7.227848
v 1.471243 4.595173 7.227848
v 0.781813 4.595173 7.227848
v 0.781813 1.265425 7.227848
v 1.471243 1.265425 7.227848
v 2.160672 1.265425 7.227848
v 0.781813 2.375341 7.227848
v 1.471243 2.375341 7.227848
v 2.160672 2.375341 7.227848
v 0.781813 3.485257 7.227848
v 1.471243 3.485257 7.227848
v 2.160672 3.485257 7.227848
vt 0.262407 0.980452
vt 0.183237 0.779316
vt 0.262408 0.779316
vt 0.579251 0.980452
vt 0.500080 0.779316
vt 0.579251 0.779316
vt 0.262407 0.377044
vt 0.183237 0.175908
vt 0.262407 0.175908
vt 0.262407 0.578180
vt 0.183237 0.377044
vt 0.183237 0.578180
vt 0.579251 0.377044
vt 0.500080 0.175908
vt 0.579251 0.175908
vt 0.579251 0.578180
vt 0.500080 0.377044
vt 0.500080 0.578180
vt 0.816763 0.779316
vt 0.737593 0.578180
vt 0.816763 0.578180
vt 0.737593 0.779316
vt 0.658422 0.578180
vt 0.658422 0.779316
vt 0.737593 0.377044
vt 0.816763 0.377044
vt 0.658422 0.377044
vt 0.737593 0.175908
vt 0.816763 0.175908
vt 0.658422 0.175908
vt 0.816763 0.980452
vt 0.737593 0.980452
vt 0.658422 0.980452
vt 0.499920 0.779316
vt 0.420749 0.578180
vt 0.499920 0.578180
vt 0.420749 0.779316
vt 0.341578 0.578180
vt 0.341578 0.779316
vt 0.420749 0.377044
vt 0.499920 0.377044
vt 0.341578 0.377044
vt 0.420749 0.175908
vt 0.499920 0.175908
vt 0.341578 0.175908
vt 0.499920 0.980452
vt 0.420749 0.980452
vt 0.341578 0.980452
vt 0.183237 0.980452
vt 0.500080 0.980452
vn 0.0000 0.0000 -1.0000
s off
f 39/1/1 9/2/1 50/3/1
f 26/4/1 17/5/1 35/6/1
f 44/7/1 5/8/1 36/9/1
f 47/10/1 11/11/1 44/7/1
f 50/3/1 10/12/1 47/10/1
f 29/13/1 2/14/1 21/15/1
f 32/16/1 15/17/1 29/13/1
f 35/6/1 16/18/1 32/16/1
f 18/19/1 30/20/1 19/21/1
f 33/22/1 31/23/1 30/20/1
f 34/24/1 32/16/1 31/23/1
f 19/21/1 27/25/1 20/26/1
f 30/20/1 28/27/1 27/25/1
f 31/23/1 29/13/1 28/27/1
f 20/26/1 23/28/1 7/29/1
f 27/25/1 22/30/1 23/28/1
f 28/27/1 21/15/1 22/30/1
f 8/31/1 33/22/1 18/19/1
f 24/32/1 34/24/1 33/22/1
f 25/33/1 35/6/1 34/24/1
f 12/34/1 45/35/1 13/36/1
f 48/37/1 46/38/1 45/35/1
f 49/39/1 47/10/1 46/38/1
f 13/36/1 42/40/1 14/41/1
f 45/35/1 43/42/1 42/40/1
f 46/38/1 44/7/1 43/42/1
f 14/41/1 38/43/1 3/44/1
f 42/40/1 37/45/1 38/43/1
f 43/42/1 36/9/1 37/45/1
f 4/46/1 48/37/1 12/34/1
f 41/47/1 49/39/1 48/37/1
f 40/48/1 50/3/1 49/39/1
f 39/1/1 6/49/1 9/2/1
f 26/4/1 1/50/1 17/5/1
f 44/7/1 11/11/1 5/8/1
f 47/10/1 10/12/1 11/11/1
f 50/3/1 9/2/1 10/12/1
f 29/13/1 15/17/1 2/14/1
f 32/16/1 16/18/1 15/17/1
f 35/6/1 17/5/1 16/18/1
f 18/19/1 33/22/1 30/20/1
f 33/22/1 34/24/1 31/23/1
f 34/24/1 35/6/1 32/16/1
f 19/21/1 30/20/1 27/25/1
f 30/20/1 31/23/1 28/27/1
f 31/23/1 32/16/1 29/13/1
f 20/26/1 27/25/1 23/28/1
f 27/25/1 28/27/1 22/30/1
f 28/27/1 29/13/1 21/15/1
f 8/31/1 24/32/1 33/22/1
f 24/32/1 25/33/1 34/24/1
f 25/33/1 26/4/1 35/6/1
f 12/34/1 48/37/1 45/35/1
f 48/37/1 49/39/1 46/38/1
f 49/39/1 50/3/1 47/10/1
f 13/36/1 45/35/1 42/40/1
f 45/35/1 46/38/1 43/42/1
f 46/38/1 47/10/1 44/7/1
f 14/41/1 42/40/1 38/43/1
f 42/40/1 43/42/1 37/45/1
f 43/42/1 44/7/1 36/9/1
f 4/46/1 41/47/1 48/37/1
f 41/47/1 40/48/1 49/39/1
f 40/48/1 39/1/1 50/3/1
