# Blender v2.79 (sub 0) OBJ File: 'jap1.blend'
# www.blender.org
o Cube.008_Cube.015
v -0.238901 0.119278 2.641885
v -0.238901 0.119278 3.814138
v -1.411153 0.119278 2.641885
v -1.411153 0.119278 3.814138
v -0.454559 0.349173 2.857544
v -0.238901 0.133514 2.641885
v -0.372030 0.332757 2.775015
v -0.302066 0.286008 2.705050
v -0.255317 0.216043 2.658301
v -0.454559 0.349173 3.598479
v -0.238901 0.133514 3.814138
v -0.372030 0.332757 3.681008
v -0.302066 0.286008 3.750973
v -0.255317 0.216043 3.797722
v -1.195494 0.349173 2.857544
v -1.411153 0.133514 2.641885
v -1.278023 0.332757 2.775015
v -1.347988 0.286008 2.705050
v -1.394737 0.216043 2.658301
v -1.195494 0.349173 3.598479
v -1.411153 0.133514 3.814138
v -1.278023 0.332757 3.681008
v -1.347988 0.286008 3.750973
v -1.394737 0.216043 3.797722
vt 0.545499 0.454501
vt 0.999900 0.000100
vt 0.999900 0.454501
vt 0.545499 0.000100
vt 0.402802 0.144056
vt 0.142597 0.401455
vt 0.143960 0.142612
vt 0.009535 0.009951
vt 0.000100 0.545295
vt 0.000100 0.000100
vt 0.535864 0.535561
vt 0.545299 0.000217
vt 0.545299 0.545412
vt 0.535450 0.009650
vt 0.431097 0.432954
vt 0.401439 0.402900
vt 0.432857 0.114400
vt 0.462263 0.464218
vt 0.464119 0.083238
vt 0.496643 0.498434
vt 0.498330 0.048863
vt 0.114302 0.112557
vt 0.083136 0.081294
vt 0.048756 0.047077
vt 0.112542 0.431112
vt 0.081281 0.462274
vt 0.047069 0.496648
vt 0.009949 0.535862
vn -0.5773 -0.5773 0.5773
vn 0.5773 -0.5773 -0.5773
vn 0.5773 -0.5773 0.5773
vn -0.5773 -0.5773 -0.5773
vn 0.0737 0.9945 0.0737
vn -0.0737 0.9945 -0.0737
vn -0.0737 0.9945 0.0737
vn -0.7012 0.1290 0.7012
vn 0.7012 0.1290 -0.7012
vn 0.7012 0.1290 0.7012
vn 0.2484 0.9362 -0.2484
vn 0.0737 0.9945 -0.0737
vn 0.2484 0.9362 0.2484
vn 0.4521 0.7689 -0.4521
vn 0.4521 0.7689 0.4521
vn 0.6310 0.4514 -0.6310
vn 0.6310 0.4514 0.6310
vn -0.2484 0.9362 0.2484
vn -0.4521 0.7689 0.4521
vn -0.6310 0.4514 0.6310
vn -0.2484 0.9362 -0.2484
vn -0.4521 0.7689 -0.4521
vn -0.6310 0.4514 -0.6310
vn -0.7012 0.1290 -0.7012
s 1
f 4/1/1 1/2/2 2/3/3
f 4/1/1 3/4/4 1/2/2
f 10/5/5 15/6/6 20/7/7
f 21/8/8 3/9/4 4/10/1
f 6/11/9 2/12/3 1/13/2
f 11/14/10 4/10/1 2/12/3
f 10/5/5 7/15/11 5/16/12
f 12/17/13 8/18/14 7/15/11
f 13/19/15 9/20/16 8/18/14
f 14/21/17 6/11/9 9/20/16
f 10/5/5 22/22/18 12/17/13
f 22/22/18 13/19/15 12/17/13
f 23/23/19 14/21/17 13/19/15
f 24/24/20 11/14/10 14/21/17
f 15/6/6 22/22/18 20/7/7
f 17/25/21 23/23/19 22/22/18
f 18/26/22 24/24/20 23/23/19
f 19/27/23 21/8/8 24/24/20
f 5/16/12 17/25/21 15/6/6
f 7/15/11 18/26/22 17/25/21
f 8/18/14 19/27/23 18/26/22
f 9/20/16 16/28/24 19/27/23
f 16/28/24 1/13/2 3/9/4
f 10/5/5 5/16/12 15/6/6
f 21/8/8 16/28/24 3/9/4
f 6/11/9 11/14/10 2/12/3
f 11/14/10 21/8/8 4/10/1
f 10/5/5 12/17/13 7/15/11
f 12/17/13 13/19/15 8/18/14
f 13/19/15 14/21/17 9/20/16
f 14/21/17 11/14/10 6/11/9
f 10/5/5 20/7/7 22/22/18
f 22/22/18 23/23/19 13/19/15
f 23/23/19 24/24/20 14/21/17
f 24/24/20 21/8/8 11/14/10
f 15/6/6 17/25/21 22/22/18
f 17/25/21 18/26/22 23/23/19
f 18/26/22 19/27/23 24/24/20
f 19/27/23 16/28/24 21/8/8
f 5/16/12 7/15/11 17/25/21
f 7/15/11 8/18/14 18/26/22
f 8/18/14 9/20/16 19/27/23
f 9/20/16 6/11/9 16/28/24
f 16/28/24 6/11/9 1/13/2
