# Blender v2.79 (sub 0) OBJ File: 'jap1.blend'
# www.blender.org
o roof_beam_Cube.008
v 6.194094 5.731065 -0.644065
v 6.194094 5.731065 0.276196
v -10.982828 5.731068 -0.644065
v -10.982828 5.731068 0.276197
v 6.194094 5.829083 -0.644065
v 6.194094 5.829083 0.276196
v -10.982828 5.829086 -0.644065
v -10.982828 5.829086 0.276197
vt 0.333333 0.666667
vt 0.666667 0.333333
vt 0.666667 0.666667
vt 0.000000 0.666667
vt 0.333333 0.333333
vt 0.333333 0.666667
vt 0.000000 0.333333
vt 0.333333 0.000000
vt 0.333333 0.000000
vt 0.666667 0.333333
vt 0.333333 0.333333
vt 1.000000 0.333333
vt 0.666667 0.000000
vt 1.000000 0.000000
vt 0.333333 1.000000
vt 0.000000 0.666667
vt 0.333333 0.666667
vt 0.333333 0.333333
vt 0.000000 0.000000
vt 0.666667 0.000000
vt 0.666667 0.333333
vt 0.000000 1.000000
vn -0.0000 -1.0000 0.0000
vn -1.0000 0.0000 0.0000
vn 0.0000 1.0000 0.0000
vn 1.0000 0.0000 0.0000
vn -0.0000 0.0000 -1.0000
vn 0.0000 0.0000 1.0000
s off
f 2/1/1 3/2/1 1/3/1
f 4/4/2 7/5/2 3/6/2
f 8/7/3 5/8/3 7/5/3
f 6/9/4 1/10/4 5/11/4
f 3/12/5 5/13/5 1/14/5
f 4/15/6 6/16/6 8/17/6
f 2/1/1 4/18/1 3/2/1
f 4/4/2 8/7/2 7/5/2
f 8/7/3 6/19/3 5/8/3
f 6/9/4 2/20/4 1/10/4
f 3/12/5 7/21/5 5/13/5
f 4/15/6 2/22/6 6/16/6
