# Blender v2.79 (sub 0) OBJ File: 'jap1.blend'
# www.blender.org
o rail_side_Cube.012
v 5.820052 -0.105011 7.299875
v 5.820052 -0.105011 -7.299875
v 5.925234 -0.105011 7.299875
v 5.925234 0.054561 7.299875
v 5.925234 -0.105011 -7.299875
v 5.925234 0.054561 -7.299875
v 5.836057 0.054561 7.299875
v 5.820052 0.030279 7.299875
v 5.824739 0.047449 7.299875
v 5.820052 0.030279 -7.299875
v 5.836057 0.054561 -7.299875
v 5.824739 0.047449 -7.299875
v 5.820052 -0.105011 -6.257036
v 5.820052 -0.105011 -5.214196
v 5.820052 -0.105011 -4.171357
v 5.820052 -0.105011 -3.128518
v 5.820052 -0.105011 -2.085679
v 5.820052 -0.105011 -1.042840
v 5.820052 -0.105011 -0.000000
v 5.820052 -0.105011 1.042839
v 5.820052 -0.105011 2.085678
v 5.820052 -0.105011 3.128518
v 5.820052 -0.105011 4.171357
v 5.820052 -0.105011 5.214196
v 5.820052 -0.105011 6.257036
v 5.925234 -0.105011 6.257036
v 5.925234 -0.105011 5.214196
v 5.925234 -0.105011 4.171357
v 5.925234 -0.105011 3.128518
v 5.925234 -0.105011 2.085679
v 5.925234 -0.105011 1.042840
v 5.925234 -0.105011 0.000000
v 5.925234 -0.105011 -1.042839
v 5.925234 -0.105011 -2.085678
v 5.925234 -0.105011 -3.128518
v 5.925234 -0.105011 -4.171357
v 5.925234 -0.105011 -5.214196
v 5.925234 -0.105011 -6.257036
v 5.925234 0.054561 -6.257036
v 5.925234 0.054561 -5.214196
v 5.925234 0.054561 -4.171357
v 5.925234 0.054561 -3.128518
v 5.925234 0.054561 -2.085679
v 5.925234 0.054561 -1.042840
v 5.925234 0.054561 -0.000000
v 5.925234 0.054561 1.042839
v 5.925234 0.054561 2.085678
v 5.925234 0.054561 3.128518
v 5.925234 0.054561 4.171357
v 5.925234 0.054561 5.214196
v 5.925234 0.054561 6.257036
v 5.836057 0.054561 6.257036
v 5.836057 0.054561 5.214196
v 5.836057 0.054561 4.171357
v 5.836057 0.054561 3.128518
v 5.836057 0.054561 2.085679
v 5.836057 0.054561 1.042840
v 5.836057 0.054561 0.000000
v 5.836057 0.054561 -1.042839
v 5.836057 0.054561 -2.085678
v 5.836057 0.054561 -3.128518
v 5.836057 0.054561 -4.171357
v 5.836057 0.054561 -5.214196
v 5.836057 0.054561 -6.257036
v 5.824739 0.047449 -6.257036
v 5.824739 0.047449 -5.214196
v 5.824739 0.047449 -4.171357
v 5.824739 0.047449 -3.128518
v 5.824739 0.047449 -2.085679
v 5.824739 0.047449 -1.042840
v 5.824739 0.047449 -0.000000
v 5.824739 0.047449 1.042839
v 5.824739 0.047449 2.085678
v 5.824739 0.047449 3.128518
v 5.824739 0.047449 4.171357
v 5.824739 0.047449 5.214196
v 5.824739 0.047449 6.257036
v 5.820052 0.030279 -6.257036
v 5.820052 0.030279 -5.214196
v 5.820052 0.030279 -4.171357
v 5.820052 0.030279 -3.128518
v 5.820052 0.030279 -2.085679
v 5.820052 0.030279 -1.042840
v 5.820052 0.030279 -0.000000
v 5.820052 0.030279 1.042839
v 5.820052 0.030279 2.085678
v 5.820052 0.030279 3.128518
v 5.820052 0.030279 4.171357
v 5.820052 0.030279 5.214196
v 5.820052 0.030279 6.257036
vt 0.023810 0.949278
vt 0.000000 0.666667
vt 0.023810 0.666667
vt 0.000000 0.023810
vt 0.333333 0.000000
vt 0.333333 0.023810
vt 0.384055 0.357143
vt 0.666667 0.333333
vt 0.666667 0.357143
vt 0.666667 0.023810
vt 1.000000 0.000000
vt 1.000000 0.023810
vt 0.050722 0.666667
vt 0.000000 0.333333
vt 0.333333 0.333333
vt 0.333333 0.949278
vt 0.309524 1.000000
vt 0.309524 0.949278
vt 0.333333 0.333333
vt 0.333333 0.357143
vt 0.333333 0.000000
vt 0.666667 0.050722
vt 0.333333 0.333333
vt 0.333333 0.642857
vt 0.384055 0.666667
vt 0.333333 0.666667
vt 0.333333 0.619048
vt 0.384055 0.642857
vt 0.333333 0.595238
vt 0.384055 0.619048
vt 0.333333 0.571429
vt 0.384055 0.595238
vt 0.333333 0.547619
vt 0.384055 0.571429
vt 0.333333 0.523810
vt 0.384055 0.547619
vt 0.333333 0.500000
vt 0.384055 0.523810
vt 0.333333 0.476190
vt 0.384055 0.500000
vt 0.333333 0.452381
vt 0.384055 0.476190
vt 0.333333 0.428571
vt 0.384055 0.452381
vt 0.333333 0.404762
vt 0.384055 0.428571
vt 0.333333 0.380952
vt 0.384055 0.404762
vt 0.384055 0.380952
vt 0.000000 1.000000
vt 0.000000 0.949278
vt 0.047619 0.949278
vt 0.023810 1.000000
vt 0.071429 0.949278
vt 0.047619 1.000000
vt 0.095238 0.949278
vt 0.071429 1.000000
vt 0.119048 0.949278
vt 0.095238 1.000000
vt 0.142857 0.949278
vt 0.119048 1.000000
vt 0.166667 0.949278
vt 0.142857 1.000000
vt 0.190476 0.949278
vt 0.166667 1.000000
vt 0.214286 0.949278
vt 0.190476 1.000000
vt 0.238095 0.949278
vt 0.214286 1.000000
vt 0.261905 0.949278
vt 0.238095 1.000000
vt 0.285714 0.949278
vt 0.261905 1.000000
vt 0.285714 1.000000
vt 0.666667 0.333333
vt 1.000000 0.309524
vt 1.000000 0.333333
vt 0.666667 0.309524
vt 1.000000 0.285714
vt 0.666667 0.285714
vt 1.000000 0.261905
vt 0.666667 0.261905
vt 1.000000 0.238095
vt 0.666667 0.238095
vt 1.000000 0.214286
vt 0.666667 0.214286
vt 1.000000 0.190476
vt 0.666667 0.190476
vt 1.000000 0.166667
vt 0.666667 0.166667
vt 1.000000 0.142857
vt 0.666667 0.142857
vt 1.000000 0.119048
vt 0.666667 0.119048
vt 1.000000 0.095238
vt 0.666667 0.095238
vt 1.000000 0.071429
vt 0.666667 0.071429
vt 1.000000 0.047619
vt 0.666667 0.047619
vt 0.666667 0.642857
vt 0.666667 0.666667
vt 0.666667 0.619048
vt 0.666667 0.595238
vt 0.666667 0.571429
vt 0.666667 0.547619
vt 0.666667 0.523810
vt 0.666667 0.500000
vt 0.666667 0.476190
vt 0.666667 0.452381
vt 0.666667 0.428571
vt 0.666667 0.404762
vt 0.666667 0.380952
vt 0.333333 0.309524
vt 0.000000 0.309524
vt 0.333333 0.285714
vt 0.000000 0.261905
vt 0.333333 0.261905
vt 0.000000 0.238095
vt 0.333333 0.238095
vt 0.000000 0.214286
vt 0.333333 0.214286
vt 0.000000 0.190476
vt 0.333333 0.190476
vt 0.000000 0.166667
vt 0.333333 0.166667
vt 0.000000 0.142857
vt 0.333333 0.142857
vt 0.000000 0.119048
vt 0.333333 0.119048
vt 0.000000 0.095238
vt 0.333333 0.095238
vt 0.000000 0.071429
vt 0.333333 0.071429
vt 0.000000 0.047619
vt 0.333333 0.047619
vt 0.309524 0.666667
vt 0.333333 0.666667
vt 0.285714 0.666667
vt 0.261905 0.666667
vt 0.238095 0.666667
vt 0.214286 0.666667
vt 0.190476 0.666667
vt 0.166667 0.666667
vt 0.142857 0.666667
vt 0.119048 0.666667
vt 0.095238 0.666667
vt 0.071429 0.666667
vt 0.047619 0.666667
vt 0.000000 0.000000
vt 0.384055 0.333333
vt 0.666667 0.000000
vt 0.333333 0.666667
vt 0.014856 0.651811
vt 0.000000 0.615945
vt 0.333333 1.000000
vt 0.666667 0.333333
vt 0.615945 0.000000
vt 0.651811 0.014856
vt 0.000000 0.285714
vn 0.0000 1.0000 0.0000
vn 1.0000 0.0000 0.0000
vn -1.0000 0.0000 0.0000
vn 0.0000 -1.0000 0.0000
vn 0.0000 0.0000 -1.0000
vn -0.5321 0.8467 0.0000
vn -0.9647 0.2634 0.0000
vn 0.0000 0.0000 1.0000
s off
f 52/1/1 4/2/1 51/3/1
f 51/4/2 3/5/2 26/6/2
f 78/7/3 2/8/3 13/9/3
f 26/10/4 1/11/4 25/12/4
f 10/13/5 6/14/5 5/15/5
f 11/16/6 65/17/6 64/18/6
f 12/19/7 78/7/7 65/20/7
f 4/21/8 8/22/8 3/23/8
f 77/24/7 8/25/7 9/26/7
f 76/27/7 90/28/7 77/24/7
f 75/29/7 89/30/7 76/27/7
f 74/31/7 88/32/7 75/29/7
f 73/33/7 87/34/7 74/31/7
f 72/35/7 86/36/7 73/33/7
f 71/37/7 85/38/7 72/35/7
f 70/39/7 84/40/7 71/37/7
f 69/41/7 83/42/7 70/39/7
f 68/43/7 82/44/7 69/41/7
f 67/45/7 81/46/7 68/43/7
f 66/47/7 80/48/7 67/45/7
f 65/20/7 79/49/7 66/47/7
f 52/1/6 9/50/6 7/51/6
f 53/52/6 77/53/6 52/1/6
f 54/54/6 76/55/6 53/52/6
f 55/56/6 75/57/6 54/54/6
f 56/58/6 74/59/6 55/56/6
f 57/60/6 73/61/6 56/58/6
f 58/62/6 72/63/6 57/60/6
f 59/64/6 71/65/6 58/62/6
f 60/66/6 70/67/6 59/64/6
f 61/68/6 69/69/6 60/66/6
f 62/70/6 68/71/6 61/68/6
f 63/72/6 67/73/6 62/70/6
f 64/18/6 66/74/6 63/72/6
f 5/75/4 13/76/4 2/77/4
f 38/78/4 14/79/4 13/76/4
f 37/80/4 15/81/4 14/79/4
f 36/82/4 16/83/4 15/81/4
f 35/84/4 17/85/4 16/83/4
f 34/86/4 18/87/4 17/85/4
f 33/88/4 19/89/4 18/87/4
f 32/90/4 20/91/4 19/89/4
f 31/92/4 21/93/4 20/91/4
f 30/94/4 22/95/4 21/93/4
f 29/96/4 23/97/4 22/95/4
f 28/98/4 24/99/4 23/97/4
f 27/100/4 25/12/4 24/99/4
f 8/25/3 25/101/3 1/102/3
f 90/28/3 24/103/3 25/101/3
f 89/30/3 23/104/3 24/103/3
f 88/32/3 22/105/3 23/104/3
f 87/34/3 21/106/3 22/105/3
f 86/36/3 20/107/3 21/106/3
f 85/38/3 19/108/3 20/107/3
f 84/40/3 18/109/3 19/108/3
f 83/42/3 17/110/3 18/109/3
f 82/44/3 16/111/3 17/110/3
f 81/46/3 15/112/3 16/111/3
f 80/48/3 14/113/3 15/112/3
f 79/49/3 13/9/3 14/113/3
f 6/14/2 38/114/2 5/15/2
f 39/115/2 37/116/2 38/114/2
f 37/116/2 41/117/2 36/118/2
f 36/118/2 42/119/2 35/120/2
f 35/120/2 43/121/2 34/122/2
f 34/122/2 44/123/2 33/124/2
f 33/124/2 45/125/2 32/126/2
f 32/126/2 46/127/2 31/128/2
f 31/128/2 47/129/2 30/130/2
f 30/130/2 48/131/2 29/132/2
f 29/132/2 49/133/2 28/134/2
f 28/134/2 50/135/2 27/136/2
f 50/135/2 26/6/2 27/136/2
f 11/16/1 39/137/1 6/138/1
f 64/18/1 40/139/1 39/137/1
f 63/72/1 41/140/1 40/139/1
f 62/70/1 42/141/1 41/140/1
f 61/68/1 43/142/1 42/141/1
f 60/66/1 44/143/1 43/142/1
f 59/64/1 45/144/1 44/143/1
f 58/62/1 46/145/1 45/144/1
f 57/60/1 47/146/1 46/145/1
f 56/58/1 48/147/1 47/146/1
f 55/56/1 49/148/1 48/147/1
f 54/54/1 50/149/1 49/148/1
f 53/52/1 51/3/1 50/149/1
f 52/1/1 7/51/1 4/2/1
f 51/4/2 4/150/2 3/5/2
f 78/7/3 10/151/3 2/8/3
f 26/10/4 3/152/4 1/11/4
f 5/15/5 2/153/5 10/13/5
f 10/13/5 12/154/5 11/155/5
f 11/155/5 6/14/5 10/13/5
f 11/16/6 12/156/6 65/17/6
f 12/19/7 10/151/7 78/7/7
f 1/157/8 3/23/8 8/22/8
f 4/21/8 7/158/8 8/22/8
f 9/159/8 8/22/8 7/158/8
f 77/24/7 90/28/7 8/25/7
f 76/27/7 89/30/7 90/28/7
f 75/29/7 88/32/7 89/30/7
f 74/31/7 87/34/7 88/32/7
f 73/33/7 86/36/7 87/34/7
f 72/35/7 85/38/7 86/36/7
f 71/37/7 84/40/7 85/38/7
f 70/39/7 83/42/7 84/40/7
f 69/41/7 82/44/7 83/42/7
f 68/43/7 81/46/7 82/44/7
f 67/45/7 80/48/7 81/46/7
f 66/47/7 79/49/7 80/48/7
f 65/20/7 78/7/7 79/49/7
f 52/1/6 77/53/6 9/50/6
f 53/52/6 76/55/6 77/53/6
f 54/54/6 75/57/6 76/55/6
f 55/56/6 74/59/6 75/57/6
f 56/58/6 73/61/6 74/59/6
f 57/60/6 72/63/6 73/61/6
f 58/62/6 71/65/6 72/63/6
f 59/64/6 70/67/6 71/65/6
f 60/66/6 69/69/6 70/67/6
f 61/68/6 68/71/6 69/69/6
f 62/70/6 67/73/6 68/71/6
f 63/72/6 66/74/6 67/73/6
f 64/18/6 65/17/6 66/74/6
f 5/75/4 38/78/4 13/76/4
f 38/78/4 37/80/4 14/79/4
f 37/80/4 36/82/4 15/81/4
f 36/82/4 35/84/4 16/83/4
f 35/84/4 34/86/4 17/85/4
f 34/86/4 33/88/4 18/87/4
f 33/88/4 32/90/4 19/89/4
f 32/90/4 31/92/4 20/91/4
f 31/92/4 30/94/4 21/93/4
f 30/94/4 29/96/4 22/95/4
f 29/96/4 28/98/4 23/97/4
f 28/98/4 27/100/4 24/99/4
f 27/100/4 26/10/4 25/12/4
f 8/25/3 90/28/3 25/101/3
f 90/28/3 89/30/3 24/103/3
f 89/30/3 88/32/3 23/104/3
f 88/32/3 87/34/3 22/105/3
f 87/34/3 86/36/3 21/106/3
f 86/36/3 85/38/3 20/107/3
f 85/38/3 84/40/3 19/108/3
f 84/40/3 83/42/3 18/109/3
f 83/42/3 82/44/3 17/110/3
f 82/44/3 81/46/3 16/111/3
f 81/46/3 80/48/3 15/112/3
f 80/48/3 79/49/3 14/113/3
f 79/49/3 78/7/3 13/9/3
f 6/14/2 39/115/2 38/114/2
f 39/115/2 40/160/2 37/116/2
f 37/116/2 40/160/2 41/117/2
f 36/118/2 41/117/2 42/119/2
f 35/120/2 42/119/2 43/121/2
f 34/122/2 43/121/2 44/123/2
f 33/124/2 44/123/2 45/125/2
f 32/126/2 45/125/2 46/127/2
f 31/128/2 46/127/2 47/129/2
f 30/130/2 47/129/2 48/131/2
f 29/132/2 48/131/2 49/133/2
f 28/134/2 49/133/2 50/135/2
f 50/135/2 51/4/2 26/6/2
f 11/16/1 64/18/1 39/137/1
f 64/18/1 63/72/1 40/139/1
f 63/72/1 62/70/1 41/140/1
f 62/70/1 61/68/1 42/141/1
f 61/68/1 60/66/1 43/142/1
f 60/66/1 59/64/1 44/143/1
f 59/64/1 58/62/1 45/144/1
f 58/62/1 57/60/1 46/145/1
f 57/60/1 56/58/1 47/146/1
f 56/58/1 55/56/1 48/147/1
f 55/56/1 54/54/1 49/148/1
f 54/54/1 53/52/1 50/149/1
f 53/52/1 52/1/1 51/3/1
