# Blender v2.79 (sub 0) OBJ File: 'pica4.blend'
# www.blender.org
mtllib pica_bridge_side.mtl
o Pica_bridge_side_Plane.006
v 6.130870 0.000000 -8.049388
v 4.024698 3.163172 -8.049388
v 6.129291 3.185741 -8.049388
v 4.024698 -0.004542 -8.049388
v 6.129822 3.184913 -3.932281
v 6.130870 0.000000 -3.932278
v 6.130870 0.000000 -5.990833
v 6.129556 3.185327 -5.990834
v 5.077784 -0.002271 -8.049388
v 5.076994 3.174456 -8.049388
v 6.130870 0.000000 8.049388
v 4.024697 3.163114 -16.276510
v 4.024698 3.163172 -8.049388
v 4.024698 -0.004552 -9.420575
v 4.024698 -0.004590 -14.905323
v 7.850134 3.185741 -8.049388
v 7.850666 3.184913 -3.932281
v 9.570978 3.185741 -10.791761
v 4.024698 3.163143 -12.162949
v 6.129291 3.185741 -13.534136
v 6.129291 3.185741 -8.049388
v 9.570978 3.185741 -14.905323
v 4.024698 -0.004581 -13.534136
v 7.850134 3.185741 -14.905323
v 7.851714 3.183278 8.049388
v 9.570978 3.185741 -9.420575
v 4.024698 3.163152 -10.791761
v 6.129291 3.185741 -12.162949
v 6.129291 3.185741 -16.276510
v 6.130870 3.183278 8.049388
v 9.570978 3.185741 -8.049388
v 9.570978 3.185741 -13.534136
v 4.024698 -0.004571 -12.162949
v 7.850134 3.185741 -9.420575
v 7.850134 3.185741 -13.534136
v 4.024698 3.163123 -14.905323
v 4.024698 3.163162 -9.420575
v 6.129291 3.185741 -10.791761
v 9.572296 3.183687 5.053971
v 6.130608 3.183687 5.053971
v 9.570978 3.185741 -16.276510
v 9.572558 3.183278 8.049388
v 9.570978 3.185741 -12.162949
v 4.024698 -0.004542 -8.049388
v 4.024697 -0.004600 -16.276510
v 6.129822 3.184913 -3.932281
v 6.130870 0.000000 -3.932278
v 9.571509 3.184913 -3.932281
v 7.851452 3.183687 5.053971
v 6.130870 0.000000 5.053971
v 6.130870 0.000000 -0.936862
v 4.024698 -0.004561 -10.791761
v 6.130084 3.184504 -0.936863
v 7.850134 3.185741 -10.791761
v 9.571771 3.184504 -0.936863
v 7.850927 3.184504 -0.936863
v 9.572034 3.184095 2.058554
v 6.130870 0.000000 2.058555
v 6.130346 3.184095 2.058554
v 7.851190 3.184095 2.058554
v 7.850134 3.185741 -16.276510
v 7.850400 3.185327 -5.990834
v 6.129556 3.185327 -5.990834
v 4.024698 3.163133 -13.534136
v 9.571243 3.185327 -5.990834
v 6.129291 3.185741 -14.905323
v 5.076994 3.174446 -10.791761
v 5.076994 3.174442 -12.162949
v 5.076994 3.174456 -8.049388
v 5.076994 3.174451 -9.420575
v 5.076994 3.174437 -13.534136
v 6.129291 3.185741 -9.420575
v 5.076993 3.174427 -16.276510
v 5.076994 3.174432 -14.905323
v 7.850134 3.185741 -12.162949
vt 0.830520 0.695050
vt 0.609711 0.837689
vt 0.609739 0.695006
vt 0.830520 0.552368
vt 0.609768 0.552324
vt 0.829000 0.983606
vt 0.609575 0.910680
vt 0.829760 0.910669
vt 0.830521 0.837732
vt 0.577154 0.171071
vt 0.661759 0.100356
vt 0.661759 0.171082
vt 0.774469 0.100356
vt 0.718114 0.171082
vt 0.718114 0.100356
vt 0.943533 0.029631
vt 0.887178 0.100356
vt 0.887178 0.029631
vt 0.133861 0.552324
vt 0.038823 0.771884
vt 0.038821 0.552324
vt 0.943533 0.100356
vt 0.887178 0.171082
vt 0.418980 0.552324
vt 0.323941 0.771884
vt 0.323940 0.552324
vt 0.830823 0.214333
vt 0.774469 0.257584
vt 0.774469 0.214333
vt 0.999887 0.100356
vt 0.943533 0.171082
vt 0.718114 0.257584
vt 0.718114 0.214333
vt 0.228902 0.771884
vt 0.228900 0.552324
vt 0.609059 0.552324
vt 0.514021 0.771884
vt 0.514019 0.552324
vt 0.369440 0.171049
vt 0.492549 0.100334
vt 0.492549 0.171060
vt 0.943533 0.214333
vt 0.887178 0.257584
vt 0.887178 0.214333
vt 0.830823 0.171082
vt 0.830823 0.100356
vt 0.999887 0.029631
vt 0.577154 0.100345
vt 0.661759 0.029631
vt 0.369440 0.100324
vt 0.492549 0.029609
vt 0.661675 0.331220
vt 0.869293 0.551945
vt 0.661675 0.551944
vt 0.123222 0.171027
vt 0.246331 0.100313
vt 0.246331 0.171038
vt 0.661759 0.214333
vt 0.123222 0.100302
vt 0.246331 0.029588
vt 0.000112 0.100291
vt 0.123222 0.029577
vt 0.418981 0.771884
vt 0.830823 0.029631
vt 0.830823 0.257584
vt 0.246439 0.331277
vt 0.454057 0.551944
vt 0.246439 0.551944
vt 0.774469 0.171082
vt 0.577154 0.029620
vt 0.999887 0.171082
vt 0.133862 0.771884
vt 0.774469 0.029631
vt 0.718114 0.029631
vt 0.999888 0.214333
vt 0.943533 0.257584
vt 0.661759 0.257584
vt 0.000112 0.171017
vt 0.038821 0.331305
vt 0.038821 0.551944
vt 0.369440 0.029598
vt 0.454057 0.331249
vt 0.609439 0.983672
vt 0.609060 0.771884
vt 0.869294 0.331192
vt 0.000112 0.029566
vt 0.999887 0.257584
vn -1.0000 -0.0004 0.0000
vn -1.0000 -0.0003 0.0000
vn 0.0000 0.0000 1.0000
vn 0.0000 1.0000 0.0002
vn 0.0000 1.0000 0.0000
vn -1.0000 0.0000 0.0000
vn -0.0107 0.9999 -0.0000
vn 0.0000 1.0000 0.0001
vn -1.0000 -0.0002 0.0000
vn -1.0000 -0.0001 0.0000
vn -1.0000 -0.0005 0.0001
vn -1.0000 -0.0004 0.0001
vn -1.0000 -0.0003 0.0001
vn -1.0000 -0.0002 0.0001
vn -0.0108 0.9999 -0.0000
vn -1.0000 -0.0001 0.0001
usemtl Material.003
s off
f 8/1/1 1/2/1 7/3/1
f 5/4/2 7/3/2 6/5/2
f 2/6/3 9/7/3 10/8/3
f 10/8/3 1/2/3 3/9/3
f 63/10/4 16/11/4 21/12/4
f 54/13/5 72/14/5 34/15/5
f 22/16/5 35/17/5 32/18/5
f 37/19/6 44/20/6 13/21/6
f 24/22/5 20/23/5 35/17/5
f 64/24/6 33/25/6 19/26/6
f 68/27/7 27/28/7 67/29/7
f 61/30/5 66/31/5 24/22/5
f 67/29/7 37/32/7 70/33/7
f 19/26/6 52/34/6 27/35/6
f 12/36/6 15/37/6 36/38/6
f 53/39/8 17/40/8 46/41/8
f 34/15/5 21/12/5 16/11/5
f 74/42/7 64/43/7 71/44/7
f 35/17/5 28/45/5 75/46/5
f 41/47/5 24/22/5 22/16/5
f 20/23/7 68/27/7 28/45/7
f 62/48/4 31/49/4 16/11/4
f 56/50/8 48/51/8 17/40/8
f 53/52/9 47/53/9 51/54/9
f 40/55/8 60/56/8 59/57/8
f 72/14/7 69/58/7 21/12/7
f 49/59/8 57/60/8 60/56/8
f 46/41/4 62/48/4 63/10/4
f 25/61/8 39/62/8 49/59/8
f 59/57/8 56/50/8 53/39/8
f 36/38/6 23/63/6 64/24/6
f 32/18/5 75/46/5 43/64/5
f 71/44/7 19/65/7 68/27/7
f 40/66/10 58/67/10 50/68/10
f 75/46/5 38/69/5 54/13/5
f 17/40/4 65/70/4 62/48/4
f 29/71/7 74/42/7 66/31/7
f 27/35/6 14/72/6 37/19/6
f 18/73/5 34/15/5 26/74/5
f 43/64/5 54/13/5 18/73/5
f 73/75/7 36/76/7 74/42/7
f 28/45/7 67/29/7 38/69/7
f 70/33/7 13/77/7 69/58/7
f 38/69/7 70/33/7 72/14/7
f 66/31/7 71/44/7 20/23/7
f 30/78/8 49/59/8 40/55/8
f 30/79/6 50/68/6 11/80/6
f 60/56/8 55/81/8 56/50/8
f 59/82/9 51/54/9 58/67/9
f 26/74/5 16/11/5 31/49/5
f 8/1/11 3/9/11 1/2/11
f 5/4/12 8/1/12 7/3/12
f 2/6/3 4/83/3 9/7/3
f 10/8/3 9/7/3 1/2/3
f 63/10/4 62/48/4 16/11/4
f 54/13/5 38/69/5 72/14/5
f 22/16/5 24/22/5 35/17/5
f 37/19/6 14/72/6 44/20/6
f 24/22/5 66/31/5 20/23/5
f 64/24/6 23/63/6 33/25/6
f 68/27/7 19/65/7 27/28/7
f 61/30/5 29/71/5 66/31/5
f 67/29/7 27/28/7 37/32/7
f 19/26/6 33/25/6 52/34/6
f 12/36/6 45/84/6 15/37/6
f 53/39/8 56/50/8 17/40/8
f 34/15/5 72/14/5 21/12/5
f 74/42/7 36/76/7 64/43/7
f 35/17/5 20/23/5 28/45/5
f 41/47/5 61/30/5 24/22/5
f 20/23/7 71/44/7 68/27/7
f 62/48/4 65/70/4 31/49/4
f 56/50/8 55/81/8 48/51/8
f 53/52/13 46/85/13 47/53/13
f 40/55/8 49/59/8 60/56/8
f 72/14/7 70/33/7 69/58/7
f 49/59/8 39/62/8 57/60/8
f 46/41/4 17/40/4 62/48/4
f 25/61/8 42/86/8 39/62/8
f 59/57/8 60/56/8 56/50/8
f 36/38/6 15/37/6 23/63/6
f 32/18/5 35/17/5 75/46/5
f 71/44/7 64/43/7 19/65/7
f 40/66/14 59/82/14 58/67/14
f 75/46/5 28/45/5 38/69/5
f 17/40/4 48/51/4 65/70/4
f 29/71/15 73/75/15 74/42/15
f 27/35/6 52/34/6 14/72/6
f 18/73/5 54/13/5 34/15/5
f 43/64/5 75/46/5 54/13/5
f 73/75/15 12/87/15 36/76/15
f 28/45/7 68/27/7 67/29/7
f 70/33/7 37/32/7 13/77/7
f 38/69/7 67/29/7 70/33/7
f 66/31/7 74/42/7 71/44/7
f 30/78/8 25/61/8 49/59/8
f 30/79/16 40/66/16 50/68/16
f 60/56/8 57/60/8 55/81/8
f 59/82/14 53/52/14 51/54/14
f 26/74/5 34/15/5 16/11/5
