# Blender v2.79 (sub 0) OBJ File: 'pica4.blend'
# www.blender.org
mtllib pica_floor_garage.mtl
o Pica_Chao_garagem_Plane.002
v -27.487316 0.000000 -17.517502
v -5.877454 0.000000 -17.517502
v -3.446751 0.000000 -17.517502
v -27.487316 0.000000 -13.495938
v -27.487316 0.000000 -9.474375
v -27.487316 0.000000 -5.452809
v -27.487316 0.000000 -1.431245
v -27.487316 0.000000 2.590320
v -27.487316 0.000000 6.611884
v -5.877454 0.000000 6.611884
v -5.877454 0.000000 2.590319
v -5.877454 0.000000 -1.431245
v -5.877454 0.000000 -5.452809
v -5.877454 0.000000 -9.474375
v -5.877454 0.000000 -13.495938
v -3.446750 0.000000 -9.474375
v -3.446750 0.000000 -13.495938
v -16.682384 0.000000 -17.517502
v -16.682384 0.000000 6.611884
v -16.682384 0.000000 2.590320
v -16.682384 0.000000 -1.431245
v -16.682384 0.000000 -5.452809
v -16.682384 0.000000 -9.474375
v -16.682384 0.000000 -13.495938
v -27.487316 0.000000 -8.257298
v -5.877454 0.000000 -8.257298
v -3.446750 0.000000 -8.257298
v -16.682384 0.000000 -8.257298
vt 0.895493 0.833268
vt 0.447795 0.999892
vt 0.447797 0.833261
vt 0.996208 0.833269
vt 0.895490 0.999899
vt 0.996211 0.616209
vt 0.895495 0.666637
vt 0.895496 0.616208
vt 0.996210 0.666638
vt 0.895505 0.000112
vt 0.447807 0.166737
vt 0.447809 0.000106
vt 0.895500 0.333374
vt 0.447805 0.333368
vt 0.447802 0.499999
vt 0.447800 0.666630
vt 0.447801 0.616201
vt 0.000102 0.833254
vt 0.000105 0.666623
vt 0.000105 0.616194
vt 0.000107 0.499992
vt 0.000110 0.333361
vt 0.000112 0.166731
vt 0.000114 0.000100
vt 0.000100 0.999885
vt 0.895498 0.500005
vt 0.996205 0.999900
vt 0.895503 0.166743
vn 0.0000 1.0000 0.0000
usemtl None
s off
f 15/1/1 18/2/1 24/3/1
f 17/4/1 2/5/1 15/1/1
f 27/6/1 14/7/1 26/8/1
f 16/9/1 15/1/1 14/7/1
f 10/10/1 20/11/1 19/12/1
f 20/11/1 12/13/1 21/14/1
f 12/13/1 22/15/1 21/14/1
f 26/8/1 23/16/1 28/17/1
f 14/7/1 24/3/1 23/16/1
f 23/16/1 4/18/1 5/19/1
f 28/17/1 5/19/1 25/20/1
f 21/14/1 6/21/1 7/22/1
f 20/11/1 7/22/1 8/23/1
f 19/12/1 8/23/1 9/24/1
f 24/3/1 1/25/1 4/18/1
f 22/15/1 25/20/1 6/21/1
f 13/26/1 28/17/1 22/15/1
f 15/1/1 2/5/1 18/2/1
f 17/4/1 3/27/1 2/5/1
f 27/6/1 16/9/1 14/7/1
f 16/9/1 17/4/1 15/1/1
f 10/10/1 11/28/1 20/11/1
f 20/11/1 11/28/1 12/13/1
f 12/13/1 13/26/1 22/15/1
f 26/8/1 14/7/1 23/16/1
f 14/7/1 15/1/1 24/3/1
f 23/16/1 24/3/1 4/18/1
f 28/17/1 23/16/1 5/19/1
f 21/14/1 22/15/1 6/21/1
f 20/11/1 21/14/1 7/22/1
f 19/12/1 20/11/1 8/23/1
f 24/3/1 18/2/1 1/25/1
f 22/15/1 28/17/1 25/20/1
f 13/26/1 26/8/1 28/17/1
