# Blender v2.79 (sub 0) OBJ File: 'pica4.blend'
# www.blender.org
mtllib rail.mtl
o rail_Plane.005
v 4.040970 3.412097 -17.849113
v 4.040970 3.442308 -17.849113
v 4.040970 3.412097 -17.769182
v 4.040970 3.442308 -17.769182
v 4.137223 3.442308 -17.769182
v 4.137223 3.412097 -17.769182
v 4.137223 3.412097 -17.849113
v 4.137223 3.442308 -17.849113
v 4.040970 4.093179 -17.849113
v 4.040970 4.093179 -17.769182
v 4.137223 4.093179 -17.769182
v 4.137223 4.093179 -17.849113
v 4.040970 2.835965 -17.769182
v 4.040970 2.835965 -17.849113
v 4.137223 2.835965 -17.849113
v 4.137223 2.835965 -17.769182
v 4.040970 3.412097 -8.181189
v 4.040970 3.442308 -8.181189
v 4.040970 3.412097 -8.101259
v 4.040970 3.442308 -8.101259
v 4.137223 3.442308 -8.101259
v 4.137223 3.412097 -8.101259
v 4.137223 3.412097 -8.181189
v 4.137223 3.442308 -8.181189
v 4.040970 4.093179 -8.181189
v 4.040970 4.093179 -8.101259
v 4.137223 4.093179 -8.101259
v 4.137223 4.093179 -8.181189
v 4.040970 2.835965 -8.101258
v 4.040970 2.835965 -8.181189
v 4.137223 2.835965 -8.181189
v 4.137223 2.835965 -8.101258
v 6.153273 3.442308 8.080352
v 6.237638 3.442309 8.080352
v 6.153273 3.442308 -8.181189
v 6.237638 3.442309 -8.181189
v 6.153273 3.412097 8.080352
v 6.237638 3.412097 8.080352
v 6.153273 3.412097 -8.181189
v 6.237638 3.412097 -8.181189
v 6.153273 3.442308 -8.101259
v 6.237638 3.442309 -8.101259
v 6.153273 3.412097 -8.101259
v 6.237638 3.412097 -8.101259
v 4.040970 3.412097 -8.181189
v 4.040970 3.442308 -8.181189
v 4.137223 3.442308 -8.101259
v 4.137223 3.412097 -8.101259
v 4.137223 3.412097 -8.181189
v 4.137223 3.442308 -8.181189
v 4.040970 3.412097 -17.858627
v 4.040970 3.442308 -17.858627
v 4.137223 3.412097 -17.858627
v 4.137223 3.442308 -17.858627
v 6.153273 4.103221 8.080352
v 6.237638 4.103221 8.080352
v 6.153273 4.103221 -8.181189
v 6.237638 4.103221 -8.181189
v 6.153273 4.073010 8.080352
v 6.237638 4.073010 8.080352
v 6.153273 4.073010 -8.181189
v 6.237638 4.073010 -8.181189
v 6.153273 4.103221 -8.101259
v 6.237638 4.103221 -8.101259
v 6.153273 4.073010 -8.101259
v 6.237638 4.073010 -8.101259
v 4.040970 4.073010 -8.181189
v 4.040970 4.103221 -8.181189
v 4.040970 4.073010 -8.101259
v 4.040970 4.103221 -8.101259
v 4.137223 4.103221 -8.101259
v 4.137223 4.073010 -8.101259
v 4.137223 4.073010 -8.181189
v 4.137223 4.103221 -8.181189
v 4.040970 4.073010 -17.858627
v 4.040970 4.103221 -17.858627
v 4.137223 4.073010 -17.858627
v 4.137223 4.103221 -17.858627
v 6.142442 3.412097 -8.181189
v 6.142442 3.442308 -8.181189
v 6.142442 3.412097 -8.101259
v 6.142442 3.442308 -8.101259
v 6.238695 3.442308 -8.101259
v 6.238695 3.412097 -8.101259
v 6.238695 3.412097 -8.181189
v 6.238695 3.442308 -8.181189
v 6.142442 4.093178 -8.181189
v 6.142442 4.093178 -8.101259
v 6.238695 4.093178 -8.101259
v 6.238695 4.093178 -8.181189
v 6.142442 2.835964 -8.101258
v 6.142442 2.835964 -8.181189
v 6.238696 2.835964 -8.181189
v 6.238696 2.835964 -8.101258
v 6.142442 3.412097 8.033519
v 6.142442 3.442308 8.033519
v 6.142442 3.412097 8.113450
v 6.142442 3.442308 8.113450
v 6.238695 3.442308 8.113450
v 6.238695 3.412097 8.113450
v 6.238695 3.412097 8.033519
v 6.238695 3.442308 8.033519
v 6.142442 4.093178 8.033519
v 6.142442 4.093178 8.113450
v 6.238695 4.093178 8.113450
v 6.238695 4.093178 8.033519
v 6.142442 2.835964 8.113450
v 6.142442 2.835964 8.033521
v 6.238696 2.835964 8.033521
v 6.238696 2.835964 8.113450
vt 0.526360 0.482292
vt 0.490413 0.458261
vt 0.526360 0.458261
vt 0.993364 0.458261
vt 0.993917 0.482292
vt 0.993364 0.482292
vt 0.993917 0.000000
vt 0.993917 0.458261
vt 0.997235 0.000000
vt 0.996682 0.517708
vt 0.996682 0.000000
vt 0.714851 0.678090
vt 0.714298 0.710224
vt 0.714298 0.678090
vt 0.490413 1.000000
vt 0.490413 0.482292
vt 0.993364 1.000000
vt 0.822692 0.000000
vt 0.786745 0.517708
vt 0.786745 0.000000
vt 0.713745 0.678090
vt 0.713192 0.710224
vt 0.713192 0.678090
vt 0.993364 0.000000
vt 0.957417 0.458261
vt 0.957417 0.000000
vt 0.999447 0.458261
vt 1.000000 0.000000
vt 1.000000 0.458261
vt 0.526360 0.000000
vt 0.490413 0.482292
vt 0.454466 0.458261
vt 0.490413 0.458261
vt 0.994470 0.458261
vt 0.995023 0.482292
vt 0.994470 0.482292
vt 0.995023 0.458261
vt 0.994470 0.000000
vt 0.995023 0.000000
vt 0.996682 0.000000
vt 0.996129 0.517708
vt 0.996129 0.000000
vt 0.706339 0.678090
vt 0.705786 0.710224
vt 0.705786 0.678090
vt 0.454466 1.000000
vt 0.454466 0.482292
vt 0.994470 1.000000
vt 0.786745 0.000000
vt 0.750798 0.517708
vt 0.750798 0.000000
vt 0.706892 0.710224
vt 0.707444 0.678090
vt 0.707444 0.710224
vt 0.957417 0.000000
vt 0.921470 0.458261
vt 0.921470 0.000000
vt 0.998894 0.458261
vt 0.999447 0.000000
vt 0.999447 0.458261
vt 0.490413 0.000000
vt 0.230057 0.701202
vt 0.229504 0.673037
vt 0.230057 0.673037
vt 0.625138 0.028165
vt 0.652020 0.000000
vt 0.652020 0.028165
vt 0.453913 0.701202
vt 0.341985 0.673037
vt 0.453913 0.673037
vt 0.768616 0.678090
vt 0.795498 0.706255
vt 0.768616 0.706255
vt 0.759551 0.517708
vt 0.732669 0.617760
vt 0.732669 0.517708
vt 0.705786 0.518202
vt 0.678903 0.618254
vt 0.678903 0.518202
vt 0.705786 0.517708
vt 0.678903 0.517708
vt 0.454465 0.701202
vt 0.454465 0.673037
vt 0.341985 0.701202
vt 0.341985 0.673037
vt 0.741733 0.618254
vt 0.705786 0.678090
vt 0.705786 0.618254
vt 0.230057 0.000000
vt 0.454465 0.000000
vt 0.625138 0.701202
vt 0.849575 0.000000
vt 0.822692 0.673037
vt 0.822692 0.000000
vt 0.741733 0.678090
vt 0.714851 0.710224
vt 0.714851 0.678090
vt 0.786434 0.617760
vt 0.813316 0.557924
vt 0.813316 0.617760
vt 0.741733 0.678090
vt 0.777680 0.618254
vt 0.777680 0.678090
vt 0.804563 0.618254
vt 0.777680 0.678090
vt 0.777680 0.618254
vt 0.228953 0.008507
vt 0.226825 0.036611
vt 0.226275 0.036569
vt 0.652021 0.000000
vt 0.678903 0.028165
vt 0.652021 0.028165
vt 0.114201 0.735809
vt 0.000000 0.716253
vt 0.111522 0.707747
vt 0.786434 0.517708
vt 0.813316 0.545873
vt 0.786434 0.545873
vt 0.786434 0.517708
vt 0.759551 0.617760
vt 0.759551 0.517708
vt 0.705786 0.617760
vt 0.732669 0.517708
vt 0.732669 0.617760
vt 0.705786 0.618254
vt 0.732669 0.618254
vt 0.598255 0.032133
vt 0.625138 0.000000
vt 0.625138 0.032133
vt 0.114752 0.735767
vt 0.112073 0.707705
vt 0.117431 0.000000
vt 0.114752 0.028063
vt 0.705786 0.678090
vt 0.678903 0.678585
vt 0.678903 0.678090
vt 0.045000 0.005088
vt 0.114752 0.032017
vt 0.048056 0.037104
vt 0.162257 0.707170
vt 0.652021 0.701202
vt 0.598255 0.705171
vt 0.625138 0.705171
vt 0.705786 0.678585
vt 0.678903 0.710718
vt 0.678903 0.678585
vt 0.705786 0.618254
vt 0.162808 0.707212
vt 0.226448 0.744316
vt 0.159752 0.739228
vt 0.768616 0.678090
vt 0.741733 0.737927
vt 0.741733 0.678090
vt 0.044449 0.005130
vt 0.159201 0.739186
vt 0.562308 0.517708
vt 0.598255 0.541739
vt 0.562308 0.541739
vt 0.993917 0.458261
vt 0.994470 0.482292
vt 0.993917 0.482292
vt 0.994470 0.458261
vt 0.993917 0.000000
vt 0.994470 0.000000
vt 0.996129 0.000000
vt 0.995576 0.517708
vt 0.995576 0.000000
vt 0.707444 0.710224
vt 0.707997 0.678090
vt 0.707997 0.710224
vt 0.598255 0.000000
vt 0.598255 0.517708
vt 0.993917 1.000000
vt 0.714851 0.517708
vt 0.750798 0.000000
vt 0.750798 0.517708
vt 0.706892 0.678090
vt 0.706339 0.710224
vt 0.706339 0.678090
vt 0.885522 0.458261
vt 0.921469 0.000000
vt 0.921470 0.458261
vt 0.998341 0.458261
vt 0.998894 0.000000
vt 0.998894 0.458261
vt 0.598255 1.000000
vt 0.562308 1.000000
vt 0.526360 0.517708
vt 0.562308 0.541739
vt 0.526360 0.541739
vt 0.995023 0.458261
vt 0.995576 0.482292
vt 0.995023 0.482292
vt 0.995576 0.458261
vt 0.995023 0.000000
vt 0.995576 0.000000
vt 0.997788 0.000000
vt 0.997235 0.517708
vt 0.997235 0.000000
vt 0.713745 0.710224
vt 0.714298 0.678090
vt 0.714298 0.710224
vt 0.562308 0.000000
vt 0.562308 0.517708
vt 0.995023 1.000000
vt 0.714851 0.000000
vt 0.678903 0.517708
vt 0.678903 0.000000
vt 0.713192 0.678090
vt 0.712639 0.710224
vt 0.712639 0.678090
vt 0.849575 0.458261
vt 0.885522 0.000000
vt 0.885522 0.458261
vt 0.997788 0.458261
vt 0.998341 0.000000
vt 0.998341 0.458261
vt 0.562308 1.000000
vt 0.526360 1.000000
vt 0.993364 0.000000
vt 0.997235 0.517708
vt 0.714851 0.710224
vt 0.526360 1.000000
vt 0.993917 1.000000
vt 0.822692 0.517708
vt 0.713745 0.710224
vt 0.993364 0.458261
vt 0.999447 0.000000
vt 0.490413 0.000000
vt 0.996682 0.517708
vt 0.706339 0.710224
vt 0.490413 1.000000
vt 0.995023 1.000000
vt 0.786745 0.517708
vt 0.706892 0.678090
vt 0.957417 0.458261
vt 0.998894 0.000000
vt 0.454465 0.000000
vt 0.229504 0.701202
vt 0.625138 0.000000
vt 0.341985 0.701202
vt 0.795498 0.678090
vt 0.759551 0.617760
vt 0.705786 0.618254
vt 0.741733 0.678090
vt 0.229504 0.000000
vt 0.453913 0.000000
vt 0.652021 0.701202
vt 0.849575 0.673037
vt 0.741733 0.710224
vt 0.786434 0.557924
vt 0.741733 0.618254
vt 0.804563 0.678090
vt 0.229504 0.008549
vt 0.678903 0.000000
vt 0.002679 0.744316
vt 0.813316 0.517708
vt 0.786434 0.617760
vt 0.705786 0.517708
vt 0.598255 0.000000
vt 0.705786 0.678585
vt 0.111696 0.000000
vt 0.047505 0.037146
vt 0.678903 0.701202
vt 0.705786 0.710718
vt 0.678903 0.618254
vt 0.229504 0.712299
vt 0.768616 0.737927
vt 0.996129 0.517708
vt 0.707444 0.678090
vt 0.562308 0.000000
vt 0.994470 1.000000
vt 0.714851 0.000000
vt 0.706892 0.710224
vt 0.885522 0.000000
vt 0.998341 0.000000
vt 0.997788 0.517708
vt 0.713745 0.678090
vt 0.526360 0.000000
vt 0.995576 1.000000
vt 0.714851 0.517708
vt 0.713192 0.710224
vt 0.849575 0.000000
vt 0.997788 0.000000
vn 0.0000 0.0000 1.0000
vn -1.0000 0.0000 0.0000
vn 1.0000 0.0000 0.0000
vn 0.0000 1.0000 0.0000
vn 0.0000 0.0000 -1.0000
vn 0.0000 -1.0000 0.0000
usemtl None
s off
f 5/1/1 3/2/1 6/3/1
f 1/4/2 4/5/2 2/6/2
f 1/4/2 13/7/2 3/8/2
f 8/9/3 11/10/3 5/11/3
f 12/12/4 10/13/4 11/14/4
f 5/1/1 10/15/1 4/16/1
f 4/5/2 9/17/2 2/6/2
f 2/18/5 12/19/5 8/20/5
f 16/21/6 14/22/6 15/23/6
f 7/24/5 14/25/5 1/26/5
f 6/27/3 15/28/3 7/29/3
f 3/2/1 16/30/1 6/3/1
f 21/31/1 19/32/1 22/33/1
f 17/34/2 20/35/2 18/36/2
f 19/37/2 30/38/2 29/39/2
f 24/40/3 27/41/3 21/42/3
f 28/43/4 26/44/4 27/45/4
f 21/31/1 26/46/1 20/47/1
f 20/35/2 25/48/2 18/36/2
f 18/49/5 28/50/5 24/51/5
f 32/52/6 30/53/6 31/54/6
f 23/55/5 30/56/5 17/57/5
f 22/58/3 31/59/3 23/60/3
f 19/32/1 32/61/1 22/33/1
f 42/62/4 35/63/4 41/64/4
f 35/65/5 40/66/5 39/67/5
f 44/68/6 37/69/6 43/70/6
f 38/71/1 33/72/1 37/73/1
f 43/74/2 33/75/2 41/76/2
f 42/77/3 38/78/3 44/79/3
f 36/80/3 44/79/3 40/81/3
f 40/82/6 43/70/6 39/83/6
f 34/84/4 41/64/4 33/85/4
f 45/86/6 53/87/6 49/88/6
f 35/63/4 47/89/4 41/64/4
f 43/70/6 49/90/6 39/83/6
f 39/67/5 50/91/5 35/65/5
f 41/92/1 48/93/1 43/94/1
f 53/95/5 52/96/5 54/97/5
f 46/98/2 51/99/2 45/100/2
f 50/101/4 52/102/4 46/103/4
f 49/104/3 54/105/3 50/106/3
f 64/107/4 57/108/4 63/109/4
f 58/110/5 61/111/5 57/112/5
f 66/113/6 59/114/6 65/115/6
f 60/116/1 55/117/1 59/118/1
f 65/119/2 55/120/2 63/121/2
f 64/122/3 60/123/3 66/124/3
f 58/125/3 66/124/3 62/126/3
f 71/127/1 69/128/1 72/129/1
f 62/130/6 65/115/6 61/131/6
f 56/132/4 63/109/4 55/133/4
f 67/134/2 70/135/2 68/136/2
f 67/137/6 77/138/6 73/139/6
f 57/108/4 71/140/4 63/109/4
f 65/115/6 73/139/6 61/131/6
f 61/111/5 74/141/5 57/112/5
f 63/142/1 72/129/1 65/143/1
f 77/144/5 76/145/5 78/146/5
f 68/136/2 75/147/2 67/134/2
f 74/148/4 76/149/4 68/150/4
f 73/151/3 78/152/3 74/153/3
f 73/139/6 69/154/6 67/137/6
f 71/140/4 68/150/4 70/155/4
f 83/156/1 81/157/1 84/158/1
f 79/159/2 82/160/2 80/161/2
f 81/162/2 92/163/2 91/164/2
f 86/165/3 89/166/3 83/167/3
f 90/168/4 88/169/4 89/170/4
f 83/156/1 88/171/1 82/172/1
f 82/160/2 87/173/2 80/161/2
f 80/174/5 90/175/5 86/176/5
f 94/177/6 92/178/6 93/179/6
f 85/180/5 92/181/5 79/182/5
f 84/183/3 93/184/3 85/185/3
f 84/158/1 91/186/1 94/187/1
f 99/188/1 97/189/1 100/190/1
f 95/191/2 98/192/2 96/193/2
f 97/194/2 108/195/2 107/196/2
f 102/197/3 105/198/3 99/199/3
f 106/200/4 104/201/4 105/202/4
f 99/188/1 104/203/1 98/204/1
f 98/192/2 103/205/2 96/193/2
f 96/206/5 106/207/5 102/208/5
f 110/209/6 108/210/6 109/211/6
f 101/212/5 108/213/5 95/214/5
f 100/215/3 109/216/3 101/217/3
f 100/190/1 107/218/1 110/219/1
f 5/1/1 4/16/1 3/2/1
f 1/4/2 3/8/2 4/5/2
f 1/4/2 14/220/2 13/7/2
f 8/9/3 12/221/3 11/10/3
f 12/12/4 9/222/4 10/13/4
f 5/1/1 11/223/1 10/15/1
f 4/5/2 10/224/2 9/17/2
f 2/18/5 9/225/5 12/19/5
f 16/21/6 13/226/6 14/22/6
f 7/24/5 15/227/5 14/25/5
f 6/27/3 16/228/3 15/28/3
f 3/2/1 13/229/1 16/30/1
f 21/31/1 20/47/1 19/32/1
f 17/34/2 19/37/2 20/35/2
f 19/37/2 17/34/2 30/38/2
f 24/40/3 28/230/3 27/41/3
f 28/43/4 25/231/4 26/44/4
f 21/31/1 27/232/1 26/46/1
f 20/35/2 26/233/2 25/48/2
f 18/49/5 25/234/5 28/50/5
f 32/52/6 29/235/6 30/53/6
f 23/55/5 31/236/5 30/56/5
f 22/58/3 32/237/3 31/59/3
f 19/32/1 29/238/1 32/61/1
f 42/62/4 36/239/4 35/63/4
f 35/65/5 36/240/5 40/66/5
f 44/68/6 38/241/6 37/69/6
f 38/71/1 34/242/1 33/72/1
f 43/74/2 37/243/2 33/75/2
f 42/77/3 34/244/3 38/78/3
f 36/80/3 42/77/3 44/79/3
f 40/82/6 44/68/6 43/70/6
f 34/84/4 42/62/4 41/64/4
f 45/86/6 51/245/6 53/87/6
f 35/63/4 50/246/4 47/89/4
f 43/70/6 48/247/6 49/90/6
f 39/67/5 49/248/5 50/91/5
f 41/92/1 47/249/1 48/93/1
f 53/95/5 51/250/5 52/96/5
f 46/98/2 52/251/2 51/99/2
f 50/101/4 54/252/4 52/102/4
f 49/104/3 53/253/3 54/105/3
f 64/107/4 58/254/4 57/108/4
f 58/110/5 62/255/5 61/111/5
f 66/113/6 60/256/6 59/114/6
f 60/116/1 56/257/1 55/117/1
f 65/119/2 59/258/2 55/120/2
f 64/122/3 56/259/3 60/123/3
f 58/125/3 64/122/3 66/124/3
f 71/127/1 70/260/1 69/128/1
f 62/130/6 66/113/6 65/115/6
f 56/132/4 64/107/4 63/109/4
f 67/134/2 69/261/2 70/135/2
f 67/137/6 75/262/6 77/138/6
f 57/108/4 74/148/4 71/140/4
f 65/115/6 72/263/6 73/139/6
f 61/111/5 73/264/5 74/141/5
f 63/142/1 71/127/1 72/129/1
f 77/144/5 75/265/5 76/145/5
f 68/136/2 76/266/2 75/147/2
f 74/148/4 78/267/4 76/149/4
f 73/151/3 77/268/3 78/152/3
f 73/139/6 72/263/6 69/154/6
f 71/140/4 74/148/4 68/150/4
f 83/156/1 82/172/1 81/157/1
f 79/159/2 81/162/2 82/160/2
f 81/162/2 79/159/2 92/163/2
f 86/165/3 90/269/3 89/166/3
f 90/168/4 87/270/4 88/169/4
f 83/156/1 89/271/1 88/171/1
f 82/160/2 88/272/2 87/173/2
f 80/174/5 87/273/5 90/175/5
f 94/177/6 91/274/6 92/178/6
f 85/180/5 93/275/5 92/181/5
f 84/183/3 94/276/3 93/184/3
f 84/158/1 81/157/1 91/186/1
f 99/188/1 98/204/1 97/189/1
f 95/191/2 97/194/2 98/192/2
f 97/194/2 95/191/2 108/195/2
f 102/197/3 106/277/3 105/198/3
f 106/200/4 103/278/4 104/201/4
f 99/188/1 105/279/1 104/203/1
f 98/192/2 104/280/2 103/205/2
f 96/206/5 103/281/5 106/207/5
f 110/209/6 107/282/6 108/210/6
f 101/212/5 109/283/5 108/213/5
f 100/215/3 110/284/3 109/216/3
f 100/190/1 97/189/1 107/218/1
l 7 8
l 23 24
l 85 86
l 101 102
